<?xml version="1.0" encoding="UTF-8"?>
<svg width="264px" height="258px" viewBox="0 0 264 258" version="1.1" xmlns="http://www.w3.org/2000/svg" xmlns:xlink="http://www.w3.org/1999/xlink">
    <!-- Generator: Sketch 46.2 (44496) - http://www.bohemiancoding.com/sketch -->
    <title>beeper</title>
    <desc>Created with Sketch.</desc>
    <defs></defs>
    <g id="Site" stroke="none" stroke-width="1" fill="none" fill-rule="evenodd" opacity="0.12">
        <g id="CONTACT" transform="translate(-41.000000, -608.000000)" fill-rule="nonzero" fill="#000000">
            <g id="PALMS" transform="translate(41.000000, 437.000000)">
                <g id="np_palm-tree_672695_000000">
                    <g id="beeper" transform="translate(100.327403, 342.686195) rotate(50.000000) translate(-100.327403, -342.686195) translate(-69.172597, 240.686195)">
                        <path d="M62.1193877,33.8849832 C46.5323601,33.8849832 33.8848426,46.5240819 33.8848426,62.1196454 L33.8848426,129.889612 L242.835724,129.889612 L242.835724,33.8849832 L62.1193877,33.8849832 Z M231.552072,96.0046286 C231.552072,108.474302 221.445918,118.597441 208.967824,118.597441 C208.967824,118.597441 208.959353,118.597441 208.950882,118.597441 L67.7696852,118.597441 C55.3000631,118.597441 45.1769664,108.491245 45.1769664,96.0215711 C45.1769664,96.0215711 45.1769664,96.0130999 45.1769664,96.0130999 L45.1769664,67.7784376 C45.1769664,55.3087638 55.2831207,45.1940963 67.7527428,45.1856251 C67.7527428,45.1856251 67.761214,45.1856251 67.761214,45.1856251 L208.942411,45.1856251 C221.420504,45.1856251 231.535129,55.2918213 231.543601,67.7614951 C231.543601,67.7614951 231.543601,67.7699664 231.543601,67.7699664 L231.543601,96.0046286 L231.552072,96.0046286 Z M33.8848426,141.181782 C33.8848426,156.768875 46.5323601,169.416445 62.1193877,169.416445 L96.0042303,169.416445 L96.0042303,141.181782 L33.8848426,141.181782 Z M107.304825,141.181782 L107.304825,169.416445 L169.424213,169.416445 L169.424213,141.181782 L107.304825,141.181782 Z M180.724808,141.181782 L180.724808,169.416445 L242.835724,169.416445 L242.835724,141.181782 L180.724808,141.181782 Z M276.720567,33.8849832 L254.136319,33.8849832 L254.136319,96.0046286 L304.963583,96.0046286 L304.963583,62.1196454 C304.963583,46.5240819 292.324537,33.8849832 276.720567,33.8849832 Z M282.379336,79.062137 C282.379336,82.1795555 279.846444,84.712458 276.720567,84.712458 C273.611633,84.712458 271.078741,82.1795555 271.078741,79.062137 L271.078741,62.1196454 C271.078741,59.002227 273.611633,56.4693245 276.720567,56.4693245 C279.846444,56.4693245 282.379336,58.9937557 282.379336,62.1196454 L282.379336,79.062137 L282.379336,79.062137 Z M254.136319,107.296799 L254.136319,169.416445 L276.720567,169.416445 C292.324537,169.416445 304.963583,156.777346 304.963583,141.181782 L304.963583,107.296799 L254.136319,107.296799 Z M282.379336,141.181782 C282.379336,144.299201 279.846444,146.832103 276.720567,146.832103 C273.611633,146.832103 271.078741,144.307672 271.078741,141.181782 L271.078741,124.239291 C271.078741,121.121872 273.611633,118.58897 276.720567,118.58897 C279.846444,118.58897 282.379336,121.121872 282.379336,124.239291 L282.379336,141.181782 L282.379336,141.181782 Z M254.136319,107.296799 L254.136319,169.416445 L276.720567,169.416445 C292.324537,169.416445 304.963583,156.777346 304.963583,141.181782 L304.963583,107.296799 L254.136319,107.296799 Z M282.379336,141.181782 C282.379336,144.299201 279.846444,146.832103 276.720567,146.832103 C273.611633,146.832103 271.078741,144.307672 271.078741,141.181782 L271.078741,124.239291 C271.078741,121.121872 273.611633,118.58897 276.720567,118.58897 C279.846444,118.58897 282.379336,121.121872 282.379336,124.239291 L282.379336,141.181782 L282.379336,141.181782 Z M276.720567,33.8849832 L254.136319,33.8849832 L254.136319,96.0046286 L304.963583,96.0046286 L304.963583,62.1196454 C304.963583,46.5240819 292.324537,33.8849832 276.720567,33.8849832 Z M282.379336,79.062137 C282.379336,82.1795555 279.846444,84.712458 276.720567,84.712458 C273.611633,84.712458 271.078741,82.1795555 271.078741,79.062137 L271.078741,62.1196454 C271.078741,59.002227 273.611633,56.4693245 276.720567,56.4693245 C279.846444,56.4693245 282.379336,58.9937557 282.379336,62.1196454 L282.379336,79.062137 L282.379336,79.062137 Z M180.724808,141.181782 L180.724808,169.416445 L242.835724,169.416445 L242.835724,141.181782 L180.724808,141.181782 Z M107.304825,141.181782 L107.304825,169.416445 L169.424213,169.416445 L169.424213,141.181782 L107.304825,141.181782 Z M62.1193877,33.8849832 C46.5323601,33.8849832 33.8848426,46.5240819 33.8848426,62.1196454 L33.8848426,129.889612 L242.835724,129.889612 L242.835724,33.8849832 L62.1193877,33.8849832 Z M231.552072,96.0046286 C231.552072,108.474302 221.445918,118.597441 208.967824,118.597441 C208.967824,118.597441 208.959353,118.597441 208.950882,118.597441 L67.7696852,118.597441 C55.3000631,118.597441 45.1769664,108.491245 45.1769664,96.0215711 C45.1769664,96.0215711 45.1769664,96.0130999 45.1769664,96.0130999 L45.1769664,67.7784376 C45.1769664,55.3087638 55.2831207,45.1940963 67.7527428,45.1856251 C67.7527428,45.1856251 67.761214,45.1856251 67.761214,45.1856251 L208.942411,45.1856251 C221.420504,45.1856251 231.535129,55.2918213 231.543601,67.7614951 C231.543601,67.7614951 231.543601,67.7699664 231.543601,67.7699664 L231.543601,96.0046286 L231.552072,96.0046286 Z M33.8848426,141.181782 C33.8848426,156.768875 46.5323601,169.416445 62.1193877,169.416445 L96.0042303,169.416445 L96.0042303,141.181782 L33.8848426,141.181782 Z M33.8848426,141.181782 C33.8848426,156.768875 46.5323601,169.416445 62.1193877,169.416445 L96.0042303,169.416445 L96.0042303,141.181782 L33.8848426,141.181782 Z M62.1193877,33.8849832 C46.5323601,33.8849832 33.8848426,46.5240819 33.8848426,62.1196454 L33.8848426,129.889612 L242.835724,129.889612 L242.835724,33.8849832 L62.1193877,33.8849832 Z M231.552072,96.0046286 C231.552072,108.474302 221.445918,118.597441 208.967824,118.597441 C208.967824,118.597441 208.959353,118.597441 208.950882,118.597441 L67.7696852,118.597441 C55.3000631,118.597441 45.1769664,108.491245 45.1769664,96.0215711 C45.1769664,96.0215711 45.1769664,96.0130999 45.1769664,96.0130999 L45.1769664,67.7784376 C45.1769664,55.3087638 55.2831207,45.1940963 67.7527428,45.1856251 C67.7527428,45.1856251 67.761214,45.1856251 67.761214,45.1856251 L208.942411,45.1856251 C221.420504,45.1856251 231.535129,55.2918213 231.543601,67.7614951 C231.543601,67.7614951 231.543601,67.7699664 231.543601,67.7699664 L231.543601,96.0046286 L231.552072,96.0046286 Z M107.304825,141.181782 L107.304825,169.416445 L169.424213,169.416445 L169.424213,141.181782 L107.304825,141.181782 Z M180.724808,141.181782 L180.724808,169.416445 L242.835724,169.416445 L242.835724,141.181782 L180.724808,141.181782 Z M276.720567,33.8849832 L254.136319,33.8849832 L254.136319,96.0046286 L304.963583,96.0046286 L304.963583,62.1196454 C304.963583,46.5240819 292.324537,33.8849832 276.720567,33.8849832 Z M282.379336,79.062137 C282.379336,82.1795555 279.846444,84.712458 276.720567,84.712458 C273.611633,84.712458 271.078741,82.1795555 271.078741,79.062137 L271.078741,62.1196454 C271.078741,59.002227 273.611633,56.4693245 276.720567,56.4693245 C279.846444,56.4693245 282.379336,58.9937557 282.379336,62.1196454 L282.379336,79.062137 L282.379336,79.062137 Z M254.136319,107.296799 L254.136319,169.416445 L276.720567,169.416445 C292.324537,169.416445 304.963583,156.777346 304.963583,141.181782 L304.963583,107.296799 L254.136319,107.296799 Z M282.379336,141.181782 C282.379336,144.299201 279.846444,146.832103 276.720567,146.832103 C273.611633,146.832103 271.078741,144.307672 271.078741,141.181782 L271.078741,124.239291 C271.078741,121.121872 273.611633,118.58897 276.720567,118.58897 C279.846444,118.58897 282.379336,121.121872 282.379336,124.239291 L282.379336,141.181782 L282.379336,141.181782 Z M254.136319,107.296799 L254.136319,169.416445 L276.720567,169.416445 C292.324537,169.416445 304.963583,156.777346 304.963583,141.181782 L304.963583,107.296799 L254.136319,107.296799 Z M282.379336,141.181782 C282.379336,144.299201 279.846444,146.832103 276.720567,146.832103 C273.611633,146.832103 271.078741,144.307672 271.078741,141.181782 L271.078741,124.239291 C271.078741,121.121872 273.611633,118.58897 276.720567,118.58897 C279.846444,118.58897 282.379336,121.121872 282.379336,124.239291 L282.379336,141.181782 L282.379336,141.181782 Z M276.720567,33.8849832 L254.136319,33.8849832 L254.136319,96.0046286 L304.963583,96.0046286 L304.963583,62.1196454 C304.963583,46.5240819 292.324537,33.8849832 276.720567,33.8849832 Z M282.379336,79.062137 C282.379336,82.1795555 279.846444,84.712458 276.720567,84.712458 C273.611633,84.712458 271.078741,82.1795555 271.078741,79.062137 L271.078741,62.1196454 C271.078741,59.002227 273.611633,56.4693245 276.720567,56.4693245 C279.846444,56.4693245 282.379336,58.9937557 282.379336,62.1196454 L282.379336,79.062137 L282.379336,79.062137 Z M180.724808,141.181782 L180.724808,169.416445 L242.835724,169.416445 L242.835724,141.181782 L180.724808,141.181782 Z M107.304825,141.181782 L107.304825,169.416445 L169.424213,169.416445 L169.424213,141.181782 L107.304825,141.181782 Z M62.1193877,33.8849832 C46.5323601,33.8849832 33.8848426,46.5240819 33.8848426,62.1196454 L33.8848426,129.889612 L242.835724,129.889612 L242.835724,33.8849832 L62.1193877,33.8849832 Z M231.552072,96.0046286 C231.552072,108.474302 221.445918,118.597441 208.967824,118.597441 C208.967824,118.597441 208.959353,118.597441 208.950882,118.597441 L67.7696852,118.597441 C55.3000631,118.597441 45.1769664,108.491245 45.1769664,96.0215711 C45.1769664,96.0215711 45.1769664,96.0130999 45.1769664,96.0130999 L45.1769664,67.7784376 C45.1769664,55.3087638 55.2831207,45.1940963 67.7527428,45.1856251 C67.7527428,45.1856251 67.761214,45.1856251 67.761214,45.1856251 L208.942411,45.1856251 C221.420504,45.1856251 231.535129,55.2918213 231.543601,67.7614951 C231.543601,67.7614951 231.543601,67.7699664 231.543601,67.7699664 L231.543601,96.0046286 L231.552072,96.0046286 Z M33.8848426,141.181782 C33.8848426,156.768875 46.5323601,169.416445 62.1193877,169.416445 L96.0042303,169.416445 L96.0042303,141.181782 L33.8848426,141.181782 Z M33.8848426,141.181782 C33.8848426,156.768875 46.5323601,169.416445 62.1193877,169.416445 L96.0042303,169.416445 L96.0042303,141.181782 L33.8848426,141.181782 Z M62.1193877,33.8849832 C46.5323601,33.8849832 33.8848426,46.5240819 33.8848426,62.1196454 L33.8848426,129.889612 L242.835724,129.889612 L242.835724,33.8849832 L62.1193877,33.8849832 Z M231.552072,96.0046286 C231.552072,108.474302 221.445918,118.597441 208.967824,118.597441 C208.967824,118.597441 208.959353,118.597441 208.950882,118.597441 L67.7696852,118.597441 C55.3000631,118.597441 45.1769664,108.491245 45.1769664,96.0215711 C45.1769664,96.0215711 45.1769664,96.0130999 45.1769664,96.0130999 L45.1769664,67.7784376 C45.1769664,55.3087638 55.2831207,45.1940963 67.7527428,45.1856251 C67.7527428,45.1856251 67.761214,45.1856251 67.761214,45.1856251 L208.942411,45.1856251 C221.420504,45.1856251 231.535129,55.2918213 231.543601,67.7614951 C231.543601,67.7614951 231.543601,67.7699664 231.543601,67.7699664 L231.543601,96.0046286 L231.552072,96.0046286 Z M107.304825,141.181782 L107.304825,169.416445 L169.424213,169.416445 L169.424213,141.181782 L107.304825,141.181782 Z M180.724808,141.181782 L180.724808,169.416445 L242.835724,169.416445 L242.835724,141.181782 L180.724808,141.181782 Z M276.720567,33.8849832 L254.136319,33.8849832 L254.136319,96.0046286 L304.963583,96.0046286 L304.963583,62.1196454 C304.963583,46.5240819 292.324537,33.8849832 276.720567,33.8849832 Z M282.379336,79.062137 C282.379336,82.1795555 279.846444,84.712458 276.720567,84.712458 C273.611633,84.712458 271.078741,82.1795555 271.078741,79.062137 L271.078741,62.1196454 C271.078741,59.002227 273.611633,56.4693245 276.720567,56.4693245 C279.846444,56.4693245 282.379336,58.9937557 282.379336,62.1196454 L282.379336,79.062137 L282.379336,79.062137 Z M254.136319,107.296799 L254.136319,169.416445 L276.720567,169.416445 C292.324537,169.416445 304.963583,156.777346 304.963583,141.181782 L304.963583,107.296799 L254.136319,107.296799 Z M282.379336,141.181782 C282.379336,144.299201 279.846444,146.832103 276.720567,146.832103 C273.611633,146.832103 271.078741,144.307672 271.078741,141.181782 L271.078741,124.239291 C271.078741,121.121872 273.611633,118.58897 276.720567,118.58897 C279.846444,118.58897 282.379336,121.121872 282.379336,124.239291 L282.379336,141.181782 L282.379336,141.181782 Z M254.136319,169.416445 L276.720567,169.416445 C292.324537,169.416445 304.963583,156.777346 304.963583,141.181782 L304.963583,107.296799 L254.136319,107.296799 L254.136319,169.416445 Z M271.078741,124.239291 C271.078741,121.121872 273.611633,118.58897 276.720567,118.58897 C279.846444,118.58897 282.379336,121.121872 282.379336,124.239291 L282.379336,141.181782 C282.379336,144.299201 279.846444,146.832103 276.720567,146.832103 C273.611633,146.832103 271.078741,144.307672 271.078741,141.181782 L271.078741,124.239291 Z M276.720567,33.8849832 L254.136319,33.8849832 L254.136319,96.0046286 L304.963583,96.0046286 L304.963583,62.1196454 C304.963583,46.5240819 292.324537,33.8849832 276.720567,33.8849832 Z M282.379336,79.062137 C282.379336,82.1795555 279.846444,84.712458 276.720567,84.712458 C273.611633,84.712458 271.078741,82.1795555 271.078741,79.062137 L271.078741,62.1196454 C271.078741,59.002227 273.611633,56.4693245 276.720567,56.4693245 C279.846444,56.4693245 282.379336,58.9937557 282.379336,62.1196454 L282.379336,79.062137 L282.379336,79.062137 Z M180.724808,169.416445 L242.835724,169.416445 L242.835724,141.181782 L180.724808,141.181782 L180.724808,169.416445 L180.724808,169.416445 Z M107.304825,169.416445 L169.424213,169.416445 L169.424213,141.181782 L107.304825,141.181782 L107.304825,169.416445 Z M33.8848426,62.1196454 L33.8848426,129.889612 L242.835724,129.889612 L242.835724,33.8849832 L62.1193877,33.8849832 C46.5323601,33.8849832 33.8848426,46.5240819 33.8848426,62.1196454 Z M208.950882,45.1771538 C221.428975,45.1771538 231.543601,55.2833501 231.552072,67.7530239 C231.552072,67.7530239 231.552072,67.7614951 231.552072,67.7614951 L231.552072,96.0046286 C231.552072,108.474302 221.445918,118.597441 208.967824,118.597441 C208.967824,118.597441 208.959353,118.597441 208.950882,118.597441 L67.7696852,118.597441 C55.3000631,118.597441 45.1769664,108.491245 45.1769664,96.0215711 C45.1769664,96.0215711 45.1769664,96.0130999 45.1769664,96.0130999 L45.1769664,67.7784376 C45.1769664,55.3087638 55.2831207,45.1940963 67.7527428,45.1856251 C67.7527428,45.1856251 67.761214,45.1856251 67.761214,45.1856251 L208.950882,45.1856251 L208.950882,45.1771538 Z M62.1193877,169.416445 L96.0042303,169.416445 L96.0042303,141.181782 L33.8848426,141.181782 C33.8848426,156.777346 46.5323601,169.416445 62.1193877,169.416445 Z M276.720567,0 L62.1193877,0 C27.8194558,0.0169424916 0.0169424213,25.0155888 0,55.8593948 L0,147.272608 C0.0169424213,178.107943 27.8194558,203.115061 62.1193877,203.140474 L276.720567,203.140474 C311.02897,203.115061 338.831484,178.107943 338.848426,147.272608 L338.848426,55.8593948 C338.831484,25.0155888 311.02897,0.0169424916 276.720567,0 Z M316.264178,141.181782 C316.230294,163.012183 298.542406,180.691673 276.720567,180.717087 L62.1193877,180.717087 C40.2975491,180.691673 22.6096612,163.012183 22.5842476,141.181782 L22.5842476,62.1196454 C22.6096612,40.2977163 40.2975491,22.609755 62.1193877,22.5843413 L276.720567,22.5843413 C298.542406,22.6012838 316.230294,40.289245 316.264178,62.1196454 L316.264178,141.181782 L316.264178,141.181782 Z M254.136319,169.416445 L276.720567,169.416445 C292.324537,169.416445 304.963583,156.777346 304.963583,141.181782 L304.963583,107.296799 L254.136319,107.296799 L254.136319,169.416445 Z M271.078741,124.239291 C271.078741,121.121872 273.611633,118.58897 276.720567,118.58897 C279.846444,118.58897 282.379336,121.121872 282.379336,124.239291 L282.379336,141.181782 C282.379336,144.299201 279.846444,146.832103 276.720567,146.832103 C273.611633,146.832103 271.078741,144.307672 271.078741,141.181782 L271.078741,124.239291 Z M276.720567,33.8849832 L254.136319,33.8849832 L254.136319,96.0046286 L304.963583,96.0046286 L304.963583,62.1196454 C304.963583,46.5240819 292.324537,33.8849832 276.720567,33.8849832 Z M282.379336,79.062137 C282.379336,82.1795555 279.846444,84.712458 276.720567,84.712458 C273.611633,84.712458 271.078741,82.1795555 271.078741,79.062137 L271.078741,62.1196454 C271.078741,59.002227 273.611633,56.4693245 276.720567,56.4693245 C279.846444,56.4693245 282.379336,58.9937557 282.379336,62.1196454 L282.379336,79.062137 L282.379336,79.062137 Z M180.724808,169.416445 L242.835724,169.416445 L242.835724,141.181782 L180.724808,141.181782 L180.724808,169.416445 L180.724808,169.416445 Z M107.304825,169.416445 L169.424213,169.416445 L169.424213,141.181782 L107.304825,141.181782 L107.304825,169.416445 Z M33.8848426,62.1196454 L33.8848426,129.889612 L242.835724,129.889612 L242.835724,33.8849832 L62.1193877,33.8849832 C46.5323601,33.8849832 33.8848426,46.5240819 33.8848426,62.1196454 Z M208.950882,45.1771538 C221.428975,45.1771538 231.543601,55.2833501 231.552072,67.7530239 C231.552072,67.7530239 231.552072,67.7614951 231.552072,67.7614951 L231.552072,96.0046286 C231.552072,108.474302 221.445918,118.597441 208.967824,118.597441 C208.967824,118.597441 208.959353,118.597441 208.950882,118.597441 L67.7696852,118.597441 C55.3000631,118.597441 45.1769664,108.491245 45.1769664,96.0215711 C45.1769664,96.0215711 45.1769664,96.0130999 45.1769664,96.0130999 L45.1769664,67.7784376 C45.1769664,55.3087638 55.2831207,45.1940963 67.7527428,45.1856251 C67.7527428,45.1856251 67.761214,45.1856251 67.761214,45.1856251 L208.950882,45.1856251 L208.950882,45.1771538 Z M62.1193877,169.416445 L96.0042303,169.416445 L96.0042303,141.181782 L33.8848426,141.181782 C33.8848426,156.777346 46.5323601,169.416445 62.1193877,169.416445 Z M33.8848426,141.181782 C33.8848426,156.768875 46.5323601,169.416445 62.1193877,169.416445 L96.0042303,169.416445 L96.0042303,141.181782 L33.8848426,141.181782 Z M62.1193877,33.8849832 C46.5323601,33.8849832 33.8848426,46.5240819 33.8848426,62.1196454 L33.8848426,129.889612 L242.835724,129.889612 L242.835724,33.8849832 L62.1193877,33.8849832 Z M231.552072,96.0046286 C231.552072,108.474302 221.445918,118.597441 208.967824,118.597441 C208.967824,118.597441 208.959353,118.597441 208.950882,118.597441 L67.7696852,118.597441 C55.3000631,118.597441 45.1769664,108.491245 45.1769664,96.0215711 C45.1769664,96.0215711 45.1769664,96.0130999 45.1769664,96.0130999 L45.1769664,67.7784376 C45.1769664,55.3087638 55.2831207,45.1940963 67.7527428,45.1856251 C67.7527428,45.1856251 67.761214,45.1856251 67.761214,45.1856251 L208.942411,45.1856251 C221.420504,45.1856251 231.535129,55.2918213 231.543601,67.7614951 C231.543601,67.7614951 231.543601,67.7699664 231.543601,67.7699664 L231.543601,96.0046286 L231.552072,96.0046286 Z M107.304825,141.181782 L107.304825,169.416445 L169.424213,169.416445 L169.424213,141.181782 L107.304825,141.181782 Z M180.724808,141.181782 L180.724808,169.416445 L242.835724,169.416445 L242.835724,141.181782 L180.724808,141.181782 Z M276.720567,33.8849832 L254.136319,33.8849832 L254.136319,96.0046286 L304.963583,96.0046286 L304.963583,62.1196454 C304.963583,46.5240819 292.324537,33.8849832 276.720567,33.8849832 Z M282.379336,79.062137 C282.379336,82.1795555 279.846444,84.712458 276.720567,84.712458 C273.611633,84.712458 271.078741,82.1795555 271.078741,79.062137 L271.078741,62.1196454 C271.078741,59.002227 273.611633,56.4693245 276.720567,56.4693245 C279.846444,56.4693245 282.379336,58.9937557 282.379336,62.1196454 L282.379336,79.062137 L282.379336,79.062137 Z M254.136319,107.296799 L254.136319,169.416445 L276.720567,169.416445 C292.324537,169.416445 304.963583,156.777346 304.963583,141.181782 L304.963583,107.296799 L254.136319,107.296799 Z M282.379336,141.181782 C282.379336,144.299201 279.846444,146.832103 276.720567,146.832103 C273.611633,146.832103 271.078741,144.307672 271.078741,141.181782 L271.078741,124.239291 C271.078741,121.121872 273.611633,118.58897 276.720567,118.58897 C279.846444,118.58897 282.379336,121.121872 282.379336,124.239291 L282.379336,141.181782 L282.379336,141.181782 Z M254.136319,107.296799 L254.136319,169.416445 L276.720567,169.416445 C292.324537,169.416445 304.963583,156.777346 304.963583,141.181782 L304.963583,107.296799 L254.136319,107.296799 Z M282.379336,141.181782 C282.379336,144.299201 279.846444,146.832103 276.720567,146.832103 C273.611633,146.832103 271.078741,144.307672 271.078741,141.181782 L271.078741,124.239291 C271.078741,121.121872 273.611633,118.58897 276.720567,118.58897 C279.846444,118.58897 282.379336,121.121872 282.379336,124.239291 L282.379336,141.181782 L282.379336,141.181782 Z M276.720567,33.8849832 L254.136319,33.8849832 L254.136319,96.0046286 L304.963583,96.0046286 L304.963583,62.1196454 C304.963583,46.5240819 292.324537,33.8849832 276.720567,33.8849832 Z M282.379336,79.062137 C282.379336,82.1795555 279.846444,84.712458 276.720567,84.712458 C273.611633,84.712458 271.078741,82.1795555 271.078741,79.062137 L271.078741,62.1196454 C271.078741,59.002227 273.611633,56.4693245 276.720567,56.4693245 C279.846444,56.4693245 282.379336,58.9937557 282.379336,62.1196454 L282.379336,79.062137 L282.379336,79.062137 Z M180.724808,141.181782 L180.724808,169.416445 L242.835724,169.416445 L242.835724,141.181782 L180.724808,141.181782 Z M107.304825,141.181782 L107.304825,169.416445 L169.424213,169.416445 L169.424213,141.181782 L107.304825,141.181782 Z M62.1193877,33.8849832 C46.5323601,33.8849832 33.8848426,46.5240819 33.8848426,62.1196454 L33.8848426,129.889612 L242.835724,129.889612 L242.835724,33.8849832 L62.1193877,33.8849832 Z M231.552072,96.0046286 C231.552072,108.474302 221.445918,118.597441 208.967824,118.597441 C208.967824,118.597441 208.959353,118.597441 208.950882,118.597441 L67.7696852,118.597441 C55.3000631,118.597441 45.1769664,108.491245 45.1769664,96.0215711 C45.1769664,96.0215711 45.1769664,96.0130999 45.1769664,96.0130999 L45.1769664,67.7784376 C45.1769664,55.3087638 55.2831207,45.1940963 67.7527428,45.1856251 C67.7527428,45.1856251 67.761214,45.1856251 67.761214,45.1856251 L208.942411,45.1856251 C221.420504,45.1856251 231.535129,55.2918213 231.543601,67.7614951 C231.543601,67.7614951 231.543601,67.7699664 231.543601,67.7699664 L231.543601,96.0046286 L231.552072,96.0046286 Z M33.8848426,141.181782 C33.8848426,156.768875 46.5323601,169.416445 62.1193877,169.416445 L96.0042303,169.416445 L96.0042303,141.181782 L33.8848426,141.181782 Z M33.8848426,141.181782 C33.8848426,156.768875 46.5323601,169.416445 62.1193877,169.416445 L96.0042303,169.416445 L96.0042303,141.181782 L33.8848426,141.181782 Z M62.1193877,33.8849832 C46.5323601,33.8849832 33.8848426,46.5240819 33.8848426,62.1196454 L33.8848426,129.889612 L242.835724,129.889612 L242.835724,33.8849832 L62.1193877,33.8849832 Z M231.552072,96.0046286 C231.552072,108.474302 221.445918,118.597441 208.967824,118.597441 C208.967824,118.597441 208.959353,118.597441 208.950882,118.597441 L67.7696852,118.597441 C55.3000631,118.597441 45.1769664,108.491245 45.1769664,96.0215711 C45.1769664,96.0215711 45.1769664,96.0130999 45.1769664,96.0130999 L45.1769664,67.7784376 C45.1769664,55.3087638 55.2831207,45.1940963 67.7527428,45.1856251 C67.7527428,45.1856251 67.761214,45.1856251 67.761214,45.1856251 L208.942411,45.1856251 C221.420504,45.1856251 231.535129,55.2918213 231.543601,67.7614951 C231.543601,67.7614951 231.543601,67.7699664 231.543601,67.7699664 L231.543601,96.0046286 L231.552072,96.0046286 Z M107.304825,141.181782 L107.304825,169.416445 L169.424213,169.416445 L169.424213,141.181782 L107.304825,141.181782 Z M180.724808,141.181782 L180.724808,169.416445 L242.835724,169.416445 L242.835724,141.181782 L180.724808,141.181782 Z M276.720567,33.8849832 L254.136319,33.8849832 L254.136319,96.0046286 L304.963583,96.0046286 L304.963583,62.1196454 C304.963583,46.5240819 292.324537,33.8849832 276.720567,33.8849832 Z M282.379336,79.062137 C282.379336,82.1795555 279.846444,84.712458 276.720567,84.712458 C273.611633,84.712458 271.078741,82.1795555 271.078741,79.062137 L271.078741,62.1196454 C271.078741,59.002227 273.611633,56.4693245 276.720567,56.4693245 C279.846444,56.4693245 282.379336,58.9937557 282.379336,62.1196454 L282.379336,79.062137 L282.379336,79.062137 Z M254.136319,107.296799 L254.136319,169.416445 L276.720567,169.416445 C292.324537,169.416445 304.963583,156.777346 304.963583,141.181782 L304.963583,107.296799 L254.136319,107.296799 Z M282.379336,141.181782 C282.379336,144.299201 279.846444,146.832103 276.720567,146.832103 C273.611633,146.832103 271.078741,144.307672 271.078741,141.181782 L271.078741,124.239291 C271.078741,121.121872 273.611633,118.58897 276.720567,118.58897 C279.846444,118.58897 282.379336,121.121872 282.379336,124.239291 L282.379336,141.181782 L282.379336,141.181782 Z M254.136319,107.296799 L254.136319,169.416445 L276.720567,169.416445 C292.324537,169.416445 304.963583,156.777346 304.963583,141.181782 L304.963583,107.296799 L254.136319,107.296799 Z M282.379336,141.181782 C282.379336,144.299201 279.846444,146.832103 276.720567,146.832103 C273.611633,146.832103 271.078741,144.307672 271.078741,141.181782 L271.078741,124.239291 C271.078741,121.121872 273.611633,118.58897 276.720567,118.58897 C279.846444,118.58897 282.379336,121.121872 282.379336,124.239291 L282.379336,141.181782 L282.379336,141.181782 Z M276.720567,33.8849832 L254.136319,33.8849832 L254.136319,96.0046286 L304.963583,96.0046286 L304.963583,62.1196454 C304.963583,46.5240819 292.324537,33.8849832 276.720567,33.8849832 Z M282.379336,79.062137 C282.379336,82.1795555 279.846444,84.712458 276.720567,84.712458 C273.611633,84.712458 271.078741,82.1795555 271.078741,79.062137 L271.078741,62.1196454 C271.078741,59.002227 273.611633,56.4693245 276.720567,56.4693245 C279.846444,56.4693245 282.379336,58.9937557 282.379336,62.1196454 L282.379336,79.062137 L282.379336,79.062137 Z M180.724808,141.181782 L180.724808,169.416445 L242.835724,169.416445 L242.835724,141.181782 L180.724808,141.181782 Z M107.304825,141.181782 L107.304825,169.416445 L169.424213,169.416445 L169.424213,141.181782 L107.304825,141.181782 Z M62.1193877,33.8849832 C46.5323601,33.8849832 33.8848426,46.5240819 33.8848426,62.1196454 L33.8848426,129.889612 L242.835724,129.889612 L242.835724,33.8849832 L62.1193877,33.8849832 Z M231.552072,96.0046286 C231.552072,108.474302 221.445918,118.597441 208.967824,118.597441 C208.967824,118.597441 208.959353,118.597441 208.950882,118.597441 L67.7696852,118.597441 C55.3000631,118.597441 45.1769664,108.491245 45.1769664,96.0215711 C45.1769664,96.0215711 45.1769664,96.0130999 45.1769664,96.0130999 L45.1769664,67.7784376 C45.1769664,55.3087638 55.2831207,45.1940963 67.7527428,45.1856251 C67.7527428,45.1856251 67.761214,45.1856251 67.761214,45.1856251 L208.942411,45.1856251 C221.420504,45.1856251 231.535129,55.2918213 231.543601,67.7614951 C231.543601,67.7614951 231.543601,67.7699664 231.543601,67.7699664 L231.543601,96.0046286 L231.552072,96.0046286 Z M33.8848426,141.181782 C33.8848426,156.768875 46.5323601,169.416445 62.1193877,169.416445 L96.0042303,169.416445 L96.0042303,141.181782 L33.8848426,141.181782 Z M62.1193877,33.8849832 C46.5323601,33.8849832 33.8848426,46.5240819 33.8848426,62.1196454 L33.8848426,129.889612 L242.835724,129.889612 L242.835724,33.8849832 L62.1193877,33.8849832 Z M231.552072,96.0046286 C231.552072,108.474302 221.445918,118.597441 208.967824,118.597441 C208.967824,118.597441 208.959353,118.597441 208.950882,118.597441 L67.7696852,118.597441 C55.3000631,118.597441 45.1769664,108.491245 45.1769664,96.0215711 C45.1769664,96.0215711 45.1769664,96.0130999 45.1769664,96.0130999 L45.1769664,67.7784376 C45.1769664,55.3087638 55.2831207,45.1940963 67.7527428,45.1856251 C67.7527428,45.1856251 67.761214,45.1856251 67.761214,45.1856251 L208.942411,45.1856251 C221.420504,45.1856251 231.535129,55.2918213 231.543601,67.7614951 C231.543601,67.7614951 231.543601,67.7699664 231.543601,67.7699664 L231.543601,96.0046286 L231.552072,96.0046286 Z M33.8848426,141.181782 C33.8848426,156.768875 46.5323601,169.416445 62.1193877,169.416445 L96.0042303,169.416445 L96.0042303,141.181782 L33.8848426,141.181782 Z M107.304825,141.181782 L107.304825,169.416445 L169.424213,169.416445 L169.424213,141.181782 L107.304825,141.181782 Z M180.724808,141.181782 L180.724808,169.416445 L242.835724,169.416445 L242.835724,141.181782 L180.724808,141.181782 Z M276.720567,33.8849832 L254.136319,33.8849832 L254.136319,96.0046286 L304.963583,96.0046286 L304.963583,62.1196454 C304.963583,46.5240819 292.324537,33.8849832 276.720567,33.8849832 Z M282.379336,79.062137 C282.379336,82.1795555 279.846444,84.712458 276.720567,84.712458 C273.611633,84.712458 271.078741,82.1795555 271.078741,79.062137 L271.078741,62.1196454 C271.078741,59.002227 273.611633,56.4693245 276.720567,56.4693245 C279.846444,56.4693245 282.379336,58.9937557 282.379336,62.1196454 L282.379336,79.062137 L282.379336,79.062137 Z M254.136319,107.296799 L254.136319,169.416445 L276.720567,169.416445 C292.324537,169.416445 304.963583,156.777346 304.963583,141.181782 L304.963583,107.296799 L254.136319,107.296799 Z M282.379336,141.181782 C282.379336,144.299201 279.846444,146.832103 276.720567,146.832103 C273.611633,146.832103 271.078741,144.307672 271.078741,141.181782 L271.078741,124.239291 C271.078741,121.121872 273.611633,118.58897 276.720567,118.58897 C279.846444,118.58897 282.379336,121.121872 282.379336,124.239291 L282.379336,141.181782 L282.379336,141.181782 Z M254.136319,107.296799 L254.136319,169.416445 L276.720567,169.416445 C292.324537,169.416445 304.963583,156.777346 304.963583,141.181782 L304.963583,107.296799 L254.136319,107.296799 Z M282.379336,141.181782 C282.379336,144.299201 279.846444,146.832103 276.720567,146.832103 C273.611633,146.832103 271.078741,144.307672 271.078741,141.181782 L271.078741,124.239291 C271.078741,121.121872 273.611633,118.58897 276.720567,118.58897 C279.846444,118.58897 282.379336,121.121872 282.379336,124.239291 L282.379336,141.181782 L282.379336,141.181782 Z M276.720567,33.8849832 L254.136319,33.8849832 L254.136319,96.0046286 L304.963583,96.0046286 L304.963583,62.1196454 C304.963583,46.5240819 292.324537,33.8849832 276.720567,33.8849832 Z M282.379336,79.062137 C282.379336,82.1795555 279.846444,84.712458 276.720567,84.712458 C273.611633,84.712458 271.078741,82.1795555 271.078741,79.062137 L271.078741,62.1196454 C271.078741,59.002227 273.611633,56.4693245 276.720567,56.4693245 C279.846444,56.4693245 282.379336,58.9937557 282.379336,62.1196454 L282.379336,79.062137 L282.379336,79.062137 Z M180.724808,141.181782 L180.724808,169.416445 L242.835724,169.416445 L242.835724,141.181782 L180.724808,141.181782 Z M107.304825,141.181782 L107.304825,169.416445 L169.424213,169.416445 L169.424213,141.181782 L107.304825,141.181782 Z M33.8848426,141.181782 C33.8848426,156.768875 46.5323601,169.416445 62.1193877,169.416445 L96.0042303,169.416445 L96.0042303,141.181782 L33.8848426,141.181782 Z M62.1193877,33.8849832 C46.5323601,33.8849832 33.8848426,46.5240819 33.8848426,62.1196454 L33.8848426,129.889612 L242.835724,129.889612 L242.835724,33.8849832 L62.1193877,33.8849832 Z M231.552072,96.0046286 C231.552072,108.474302 221.445918,118.597441 208.967824,118.597441 C208.967824,118.597441 208.959353,118.597441 208.950882,118.597441 L67.7696852,118.597441 C55.3000631,118.597441 45.1769664,108.491245 45.1769664,96.0215711 C45.1769664,96.0215711 45.1769664,96.0130999 45.1769664,96.0130999 L45.1769664,67.7784376 C45.1769664,55.3087638 55.2831207,45.1940963 67.7527428,45.1856251 C67.7527428,45.1856251 67.761214,45.1856251 67.761214,45.1856251 L208.942411,45.1856251 C221.420504,45.1856251 231.535129,55.2918213 231.543601,67.7614951 C231.543601,67.7614951 231.543601,67.7699664 231.543601,67.7699664 L231.543601,96.0046286 L231.552072,96.0046286 Z" id="Shape"></path>
                        <g id="Group" transform="translate(56.474738, 69.961242)">
                            <path d="M3.89237378,11.353951 C2.87582851,10.839778 2.12189076,10.199169 1.63903175,9.44055316 C1.14770153,8.68193728 0.910507636,7.76316916 0.910507636,6.6842488 C0.910507636,4.62755686 1.72374386,3.00074725 3.34174509,1.82067811 C4.95974633,0.632179899 7.19614594,0.0421453266 10.0424727,0.0421453266 C12.8718571,0.0421453266 15.0997855,0.632179899 16.7177867,1.82067811 C18.3357879,3.00917632 19.1490242,4.62755686 19.1490242,6.6842488 C19.1490242,7.7547401 18.9118303,8.67350822 18.4289713,9.44055316 C17.937641,10.199169 17.1921745,10.839778 16.1925716,11.353951 C17.4293684,11.8512658 18.3527304,12.5340201 18.9541863,13.4022139 C19.5556423,14.2704076 19.8606059,15.349328 19.8606059,16.6389749 C19.8606059,18.973826 18.9965424,20.777646 17.2853578,22.0504349 C15.5741733,23.3232237 13.1598782,23.9638327 10.0340015,23.9638327 C6.89118235,23.9638327 4.46841611,23.3232237 2.75723156,22.0504349 C1.04604701,20.777646 0.190454731,18.973826 0.190454731,16.6389749 C0.190454731,15.357757 0.486947104,14.2704076 1.08840306,13.4022139 C1.68985902,12.5340201 2.64710582,11.8512658 3.89237378,11.353951 Z M6.91659599,16.2428089 C6.91659599,17.1278607 7.18767473,17.8190441 7.73830342,18.3079299 C8.28893211,18.7968157 9.05134107,19.0412586 10.0509439,19.0412586 C11.0420756,19.0412586 11.8129557,18.7968157 12.346642,18.3079299 C12.8887995,17.8190441 13.1598782,17.1278607 13.1598782,16.2428089 C13.1598782,15.3408989 12.8887995,14.6244283 12.3296996,14.1102553 C11.7875421,13.5960824 11.0251332,13.3347813 10.0424727,13.3347813 C9.05134107,13.3347813 8.28893211,13.5960824 7.73830342,14.1102553 C7.18767473,14.6244283 6.91659599,15.3324698 6.91659599,16.2428089 Z M7.10296262,7.11413113 C7.10296262,7.90646327 7.35709894,8.52178504 7.87384279,8.96009644 C8.39058664,9.39840783 9.11063954,9.61756353 10.0509439,9.61756353 C10.9658347,9.61756353 11.6774164,9.39840783 12.185689,8.96009644 C12.6939616,8.52178504 12.948098,7.90646327 12.948098,7.11413113 C12.948098,6.42294778 12.6770192,5.8582004 12.1263905,5.41145994 C11.5927043,4.96471947 10.8895938,4.73713471 10.0509439,4.73713471 C9.18688044,4.73713471 8.48376996,4.96471947 7.93314126,5.41145994 C7.37404136,5.8582004 7.10296262,6.42294778 7.10296262,7.11413113 Z" id="Shape"></path>
                            <path d="M28.4842983,10.0221587 C29.0857543,9.48269849 29.8142784,9.07810335 30.6783419,8.79151513 C31.5424053,8.50492691 32.4996521,8.37006186 33.5754959,8.37006186 C35.9643773,8.37006186 37.8788709,9.04438709 39.3105055,10.3930375 C40.7336689,11.7501171 41.4452506,13.553937 41.4452506,15.8213556 C41.4452506,18.3416461 40.6066007,20.3393346 38.9377722,21.7891339 C37.2604725,23.2473622 34.9647744,23.9806908 32.050678,23.9806908 C28.6537225,23.9806908 26.0784745,22.9776321 24.3503475,20.9715145 C22.6137493,18.973826 21.7496858,15.998366 21.7496858,12.0451343 C21.7496858,8.26048402 22.6476342,5.31031115 24.4604732,3.19461576 C26.2817835,1.07892036 28.8062043,0.025287196 32.050678,0.025287196 C34.464973,0.025287196 36.4641787,0.581605507 38.0567663,1.69424213 C39.6493539,2.80687875 40.6489568,4.35782677 41.0640461,6.35551525 L34.7529942,6.57467095 C34.5750988,5.97620731 34.2531927,5.51260872 33.8126898,5.19230424 C33.3552444,4.88042882 32.7961445,4.72027658 32.1184477,4.72027658 C30.9833054,4.72027658 30.119242,5.15858798 29.517786,6.03521077 C28.8993876,6.92869169 28.5605392,8.25205495 28.4842983,10.0221587 Z M28.6876074,15.7960684 C28.6876074,16.7485528 28.9586861,17.4987396 29.5093148,18.0466289 C30.0514723,18.5945181 30.7969388,18.8726773 31.7457144,18.8726773 C32.6606051,18.8726773 33.3976005,18.6029472 33.939758,18.0466289 C34.4734442,17.4987396 34.7529942,16.7654109 34.7529942,15.8297847 C34.7529942,14.8688712 34.4903866,14.1186844 33.9567004,13.5623661 C33.4314853,13.0144769 32.7029612,12.7363177 31.7795992,12.7363177 C30.8392949,12.7363177 30.0853571,13.0144769 29.5262572,13.5707952 C28.9586861,14.1271135 28.6876074,14.8688712 28.6876074,15.7960684 Z" id="Shape"></path>
                            <path d="M47.2395587,23.3737981 C47.4767526,20.1033208 48.2137479,17.0857154 49.4336022,14.320982 C50.6534566,11.5562486 52.440882,8.87580578 54.812821,6.26279553 L43.6647078,6.26279553 L43.6647078,0.640608964 L61.9371091,0.640608964 L61.9371091,5.60532844 C59.760008,7.80531449 58.1081219,10.3508922 56.9560373,13.2757779 C55.8124239,16.1922345 55.1516694,19.5554315 54.973774,23.3653691 L47.2395587,23.3653691 L47.2395587,23.3737981 Z" id="Shape"></path>
                            <polygon id="Shape" points="65.1985252 17.7178953 65.1985252 11.6236811 73.4071284 11.6236811 73.4071284 17.7178953"></polygon>
                            <path d="M75.6943552,17.3470164 L82.3103708,16.6979784 C82.5560359,17.3807327 82.9457116,17.9033347 83.4624554,18.2489264 C83.9791993,18.6029472 84.6145401,18.7715285 85.3684778,18.7715285 C86.3596094,18.7715285 87.147432,18.5017984 87.7065319,17.9539091 C88.2741031,17.414449 88.5621242,16.6726912 88.5621242,15.7286359 C88.5621242,14.7592934 88.2825743,13.9753903 87.7234744,13.3937848 C87.1643745,12.8121793 86.4443216,12.517162 85.537902,12.517162 C84.9872733,12.517162 84.4874719,12.6267399 84.0300265,12.8374665 C83.5810524,13.0566222 83.1913767,13.3684976 82.8609995,13.7815218 L76.6261884,13.2589198 L78.8880017,0.64903803 L93.4076567,0.64903803 L93.4076567,6.11950142 L83.5217539,6.11950142 L82.8694707,9.36469157 C83.5048115,8.9938127 84.1994507,8.72408261 84.9618597,8.5555013 C85.7157974,8.38692 86.5713897,8.30262934 87.5455789,8.30262934 C89.8497482,8.30262934 91.7134146,8.9685255 93.1281068,10.2918888 C94.5343277,11.6236811 95.2374382,13.3769267 95.2374382,15.5516255 C95.2374382,18.2067811 94.3649035,20.2887602 92.6113629,21.7807048 C90.8662935,23.2726494 88.4265848,24.0228362 85.3007081,24.0228362 C82.7085177,24.0228362 80.5822438,23.4412307 78.9049441,22.2695906 C77.2276444,21.1148086 76.1602718,19.4711409 75.6943552,17.3470164 Z" id="Shape"></path>
                            <path d="M97.4907802,15.3408989 L103.725591,15.3408989 C103.767947,16.4703936 104.055968,17.3048711 104.589655,17.8527604 C105.11487,18.4006496 105.911164,18.6788088 106.970065,18.6788088 C107.893427,18.6788088 108.596537,18.451224 109.096339,17.9960545 C109.587669,17.5408849 109.833334,16.8834178 109.833334,16.0152241 C109.833334,15.1386013 109.545313,14.5064214 108.952328,14.1102553 C108.376286,13.7140893 107.419039,13.5202208 106.106001,13.5202208 L105.555373,13.5202208 L105.555373,9.60913447 L106.021289,9.60913447 C107.241144,9.60913447 108.156034,9.41526596 108.75749,9.02752896 C109.367418,8.63979196 109.672381,8.04975738 109.672381,7.27428337 C109.672381,6.59152908 109.460601,6.06892703 109.020098,5.70647722 C108.588066,5.35245648 107.952725,5.16701704 107.122547,5.16701704 C106.199185,5.16701704 105.487603,5.37774368 104.996273,5.79076788 C104.504943,6.20379208 104.233864,6.83597198 104.183037,7.66202038 L98.0414089,7.66202038 C98.083765,5.35245648 98.9393573,3.49806211 100.625128,2.09883727 C102.310899,0.699612422 104.521885,0 107.2835,0 C109.926517,0 112.035849,0.598463638 113.611494,1.81224904 C115.19561,3.01760539 115.974962,4.6191278 115.974962,6.61681628 C115.974962,7.63673318 115.771653,8.52178504 115.348092,9.26354279 C114.933003,10.0053005 114.306133,10.6037642 113.459012,11.0589337 C114.509442,11.4550998 115.288794,12.0788506 115.797066,12.9217571 C116.305339,13.7562346 116.559475,14.835155 116.559475,16.1416601 C116.559475,18.6113762 115.695412,20.5416322 113.967285,21.932428 C112.239158,23.3232237 109.833334,24.0228362 106.741342,24.0228362 C103.903487,24.0228362 101.641673,23.2810784 99.972845,21.7975629 C98.3040165,20.3140474 97.4653666,18.3163589 97.4653666,15.7960684 L97.4653666,15.3408989 L97.4907802,15.3408989 Z" id="Shape"></path>
                            <path d="M118.507854,12.002989 C118.507854,8.06661551 119.354975,5.08272639 121.040746,3.05132165 C122.734988,1.0199169 125.217053,0.00842906532 128.512354,0.00842906532 C131.807655,0.00842906532 134.315133,1.0199169 136.017846,3.05132165 C137.72056,5.08272639 138.584623,8.06661551 138.584623,12.002989 C138.584623,15.9477916 137.72056,18.9401098 136.017846,20.9715145 C134.315133,23.0029193 131.807655,24.0228362 128.512354,24.0228362 C125.233995,24.0228362 122.743459,23.0029193 121.049217,20.9630855 C119.354975,18.9232516 118.507854,15.9393625 118.507854,12.002989 Z M131.621288,12.002989 C131.621288,9.53327288 131.384094,7.78845636 130.901235,6.77696852 C130.418376,5.76548068 129.630553,5.25973676 128.503882,5.25973676 C127.36874,5.25973676 126.563975,5.76548068 126.089587,6.76011039 C125.606728,7.76316916 125.369534,9.50798568 125.369534,12.002989 C125.369534,14.4979924 125.606728,16.2343798 126.089587,17.2205805 C126.563975,18.2152102 127.36874,18.712525 128.503882,18.712525 C129.630553,18.712525 130.426847,18.2067811 130.901235,17.2121514 C131.384094,16.2006635 131.621288,14.4727052 131.621288,12.002989 Z" id="Shape"></path>
                            <path d="M152.799315,13.9753903 C152.20633,14.5232795 151.477806,14.9363038 150.613742,15.2144629 C149.749679,15.4926221 148.792432,15.6359162 147.716588,15.6359162 C145.327707,15.6359162 143.404742,14.9531619 141.973107,13.6045114 C140.541473,12.255861 139.829891,10.4351829 139.829891,8.1677643 C139.829891,5.65590283 140.668541,3.67507248 142.345841,2.21684418 C144.014669,0.758615879 146.318838,0.0337162613 149.241406,0.0337162613 C152.638362,0.0337162613 155.21361,1.03677503 156.950208,3.03446352 C158.686806,5.032152 159.567812,7.99918299 159.567812,11.9355565 C159.567812,15.7286359 158.652921,18.6788088 156.831611,20.7860751 C155.001829,22.9017705 152.477409,23.9554036 149.241406,23.9554036 C146.827111,23.9554036 144.827905,23.4075144 143.25226,22.2948778 C141.676615,21.1822412 140.677012,19.6397222 140.253452,17.6420337 L146.496734,17.4060199 C146.6831,18.0044835 147.013478,18.4596531 147.470923,18.7799575 C147.928368,19.100262 148.487468,19.2519852 149.165165,19.2519852 C150.291836,19.2519852 151.147428,18.8136738 151.757356,17.937051 C152.375754,17.0772863 152.714602,15.7539231 152.799315,13.9753903 Z M152.579063,8.21833869 C152.579063,7.25742524 152.307984,6.49880936 151.765827,5.95092012 C151.223669,5.40303087 150.486674,5.12487172 149.537898,5.12487172 C148.614537,5.12487172 147.886012,5.40303087 147.343855,5.95092012 C146.81864,6.49880936 146.53909,7.24056711 146.53909,8.1677643 C146.53909,9.13710681 146.801697,9.89572269 147.326912,10.4436119 C147.852128,10.9830721 148.57218,11.2612313 149.504014,11.2612313 C150.435847,11.2612313 151.181313,10.9830721 151.740413,10.4351829 C152.299513,9.88729362 152.579063,9.14553587 152.579063,8.21833869 Z" id="Shape"></path>
                        </g>
                    </g>
                </g>
            </g>
        </g>
    </g>
</svg>