<?xml version="1.0" encoding="UTF-8"?>
<svg width="284px" height="265px" viewBox="0 0 284 265" version="1.1" xmlns="http://www.w3.org/2000/svg" xmlns:xlink="http://www.w3.org/1999/xlink">
    <!-- Generator: Sketch 46.2 (44496) - http://www.bohemiancoding.com/sketch -->
    <title>np_code_1271996_000000</title>
    <desc>Created with Sketch.</desc>
    <defs></defs>
    <g id="Site" stroke="none" stroke-width="1" fill="none" fill-rule="evenodd" opacity="0.117697011">
        <g id="WHAT" transform="translate(-41.000000, -601.000000)" fill-rule="nonzero" fill="#3A3A3A">
            <g id="PALMS" transform="translate(41.000000, 518.000000)">
                <g id="np_palm-tree_672695_000000">
                    <g id="np_code_1271996_000000" transform="translate(130.793305, 229.896796) rotate(10.000000) translate(-130.793305, -229.896796) translate(-24.706695, 75.896796)">
                        <path d="M88.6204097,69.1563936 C83.3606224,64.5331159 75.3804009,65.0466484 70.7634718,70.316413 L3.22748165,147.522352 C-1.07582722,152.344594 -1.07582722,159.652835 3.22748165,164.491622 L70.7634718,241.697561 C75.4133247,246.983913 83.4593937,247.464567 88.7191811,242.774728 C93.9789684,238.084845 94.4572076,230.014685 89.790935,224.728333 L29.5572738,155.922183 L89.757167,87.0990639 C94.3572122,81.829257 93.8462602,73.8087313 88.6194811,69.1519392 L88.6204097,69.1563936 Z" id="Shape"></path>
                        <path d="M240.238494,70.3117006 C235.572309,65.0253325 227.526463,64.5281313 222.283283,69.2179854 C217.023642,73.9078819 216.545416,81.9946125 221.195098,87.2809807 L281.393319,155.92189 L221.195098,224.72825 C216.545374,230.014619 217.023684,238.084804 222.283283,242.774701 C227.526463,247.464597 235.572309,246.983899 240.238494,241.69753 L307.772608,164.491356 C312.075797,159.652553 312.075797,152.34429 307.772608,147.522033 L240.238494,70.3117006 Z" id="Shape"></path>
                        <path d="M188.899292,0.290103565 C185.584414,-0.42465639 182.102714,0.190368233 179.25453,2.03545061 C176.389374,3.86390334 174.390571,6.77285764 173.674154,10.0804894 L112.39066,292.078122 C111.541109,295.435795 112.090822,298.992957 113.906521,301.951656 C115.738885,304.893801 118.687325,306.971613 122.085614,307.703097 C125.483818,308.45109 129.031873,307.769586 131.913745,305.84141 C134.795617,303.913235 136.777704,300.887835 137.377277,297.480629 L198.711944,15.4829973 C199.428233,12.1751953 198.795231,8.70092656 196.962863,5.85882276 C195.113868,2.99978294 192.215322,1.0052465 188.900614,0.290358882 L188.899292,0.290103565 Z" id="Shape"></path>
                    </g>
                </g>
            </g>
        </g>
    </g>
</svg>