<?xml version="1.0" encoding="UTF-8"?>
<svg width="180px" height="282px" viewBox="0 0 180 282" version="1.1" xmlns="http://www.w3.org/2000/svg" xmlns:xlink="http://www.w3.org/1999/xlink">
    <!-- Generator: Sketch 46.2 (44496) - http://www.bohemiancoding.com/sketch -->
    <title>np_dollar_834682_000000</title>
    <desc>Created with Sketch.</desc>
    <defs></defs>
    <g id="Site" stroke="none" stroke-width="1" fill="none" fill-rule="evenodd" opacity="0.119999997">
        <g id="WHAT" transform="translate(-1276.000000, -584.000000)" fill-rule="nonzero" fill="#000000">
            <g id="PALMS" transform="translate(41.000000, 518.000000)">
                <g id="np_palm-tree_672695_000000">
                    <g id="np_dollar_834682_000000" transform="translate(1332.000000, 213.000000) rotate(20.000000) translate(-1332.000000, -213.000000) translate(1249.000000, 58.000000)">
                        <path d="M160.871789,93.7813908 C161.152445,89.5626497 160.27928,85.1265122 159.328168,81.029666 C157.207644,71.8865136 152.155708,63.6115579 145.419926,56.4353918 C136.345481,46.776878 122.577344,40.6449788 108.856307,37.701445 C99.1424115,35.6258994 88.9451365,34.8798059 78.9662007,35.015453 C68.7533586,35.1511069 58.2599088,36.2906254 48.5148793,39.0445799 C32.6575519,43.521349 18.9524814,52.230403 10.3454497,64.7511875 C3.65636942,74.477768 0.600420115,85.886219 0.0547719038,97.1321436 C-0.475349083,108.079409 2.86132765,119.013477 9.25415327,128.441398 C17.5801782,140.74548 30.9739058,150.227577 45.6461348,156.345932 C55.3133287,160.375059 65.4794693,163.359224 75.9413857,165.353646 C85.9358886,167.266387 95.7276196,169.192811 105.223176,172.624966 C104.13172,172.231569 103.055871,171.824593 101.964415,171.431196 C109.121307,174.062908 115.950492,177.332155 122.109491,181.469632 C121.189553,180.845607 120.269615,180.235161 119.349677,179.611136 C123.793496,182.622702 127.831772,186.041348 131.293265,189.907254 C130.576019,189.10688 129.87438,188.306507 129.157134,187.506134 C132.135208,190.870396 134.629982,194.53297 136.547934,198.439855 C136.095768,197.490257 135.627995,196.554236 135.17583,195.604638 C136.922144,199.226754 138.138336,203.011397 138.76202,206.891194 C138.606097,205.83307 138.434583,204.788526 138.27868,203.730402 C138.995926,208.49194 138.746453,213.348285 138.029207,218.096278 C138.185126,217.038155 138.35664,215.99361 138.512547,214.935487 C137.732952,219.914074 136.29846,224.811397 134.068727,229.464237 C134.520892,228.514638 134.988665,227.578618 135.44083,226.629019 C133.616561,230.386574 131.293186,233.927427 128.424441,237.15573 C129.141687,236.355357 129.843326,235.554983 130.560572,234.75461 C128.00349,237.603372 125.072157,240.153751 121.797869,242.378419 C122.717807,241.754394 123.637745,241.143947 124.557683,240.519922 C120.768801,243.056688 116.621236,245.118586 112.240084,246.746628 C113.33154,246.353231 114.407389,245.946255 115.498845,245.552858 C109.464782,247.750472 103.118578,249.106908 96.6478372,249.880297 C97.86403,249.74464 99.0646157,249.595418 100.280808,249.459778 C90.2707384,250.612847 79.9956277,250.531445 69.9855576,249.364818 C71.2017504,249.500475 72.4023361,249.649697 73.6185289,249.785337 C66.7893444,248.957842 60.0535627,247.533444 53.6762244,245.200217 C54.7676804,245.593615 55.8435295,246.00059 56.9349856,246.393988 C52.6316693,244.793241 48.5462929,242.785415 44.804192,240.303067 C45.7241301,240.927092 46.6440683,241.537539 47.5640064,242.161564 C44.3208523,239.977494 41.4050072,237.467746 38.8947061,234.646107 C39.6119521,235.44648 40.3135911,236.246853 41.030837,237.047226 C38.4893218,234.171342 36.3998125,231.010481 34.7628679,227.67348 C35.2150334,228.623079 35.682806,229.559099 36.1349715,230.508698 C34.3418765,226.764687 33.1256837,222.830714 32.5020002,218.815131 C32.6579191,219.873255 32.8294331,220.917799 32.98534,221.975923 C32.6423121,219.76473 32.3928307,217.458522 32.5799557,215.220311 C33.1100767,208.763012 25.9691103,203.350327 18.9367546,203.350327 C11.0941094,203.350327 5.82363462,208.763012 5.29355355,215.220311 C4.95052564,219.384877 5.8081074,223.793926 6.69683143,227.83625 C8.70822565,236.925227 13.6976536,245.118919 20.3244654,252.254107 C29.3210747,261.926512 43.0421115,268.04452 56.6853126,271.069664 C66.3680736,273.226577 76.5497814,274.013406 86.5287172,273.999828 C96.7571265,273.986263 107.281711,272.914582 117.073442,270.255816 C132.993037,265.941921 146.745208,257.246411 155.430076,244.779802 C162.212559,235.053221 165.284475,223.631226 165.923526,212.358214 C166.547209,201.424493 163.335229,190.558491 157.051453,181.076048 C148.896667,168.771965 135.627876,159.24889 121.127284,153.036075 C111.397822,148.871509 101.07601,145.819277 90.5043253,143.757136 C80.2914832,141.762993 70.2969802,139.877339 60.5986521,136.350377 C61.6901082,136.743775 62.7659572,137.15075 63.8574133,137.544148 C56.7160876,134.912435 49.9024702,131.643189 43.7590382,127.505711 C44.6789763,128.129736 45.5989145,128.740182 46.5188526,129.364207 C42.0906,126.352642 38.0678914,122.933996 34.6219653,119.06809 C35.3392113,119.868463 36.0408502,120.668836 36.7580962,121.469209 C33.7955897,118.104947 31.3163829,114.442373 29.4143978,110.535488 C29.8665633,111.485087 30.3343359,112.421107 30.7865014,113.370706 C29.0557947,109.74859 27.8396019,105.963947 27.2315255,102.08415 C27.3874484,103.142273 27.5589583,104.186818 27.7148652,105.244941 C27.0132263,100.564667 27.2470926,95.8031291 27.9487475,91.1232019 C27.7928247,92.1813253 27.6213147,93.22587 27.4654078,94.2839933 C28.2450022,89.3054066 29.6638871,84.4219742 31.8936604,79.7823314 C31.4414948,80.7319301 30.9737222,81.6679503 30.5215567,82.617549 C32.3458259,78.859994 34.6847687,75.3191409 37.5535132,72.0908385 C36.8362672,72.8912116 36.1346283,73.6915847 35.4173823,74.4919578 C37.9900717,71.6431963 40.9369313,69.0792728 44.2112197,66.8546057 C43.2912816,67.4786307 42.3713434,68.0890771 41.4514053,68.7131021 C45.3650242,66.0813898 49.6840273,63.9651084 54.236817,62.2828906 C53.1453609,62.6762879 52.0695119,63.0832637 50.9780558,63.476661 C57.0899544,61.279047 63.498427,59.9226113 70.0470039,59.122134 C68.8308111,59.2577914 67.6302254,59.4070136 66.4140326,59.5426537 C76.2368979,58.403163 86.2940686,58.403163 96.1169338,59.5155243 C94.9007411,59.3798668 93.7001553,59.2306447 92.4839625,59.0950046 C99.2975799,59.8953777 105.98666,61.2926186 112.332864,63.6124053 C111.241408,63.219008 110.165559,62.8120322 109.074103,62.4186349 C113.377419,64.0193811 117.462796,66.0272074 121.173363,68.5095552 C120.253425,67.8855302 119.333487,67.2750838 118.413549,66.6510588 C121.656703,68.8486728 124.588115,71.3719647 127.113983,74.2071477 C126.396737,73.4067746 125.695098,72.6064014 124.977852,71.8060283 C127.534975,74.7090695 129.640011,77.8834047 131.292523,81.2613842 C130.840357,80.3117854 130.372585,79.3757653 129.920419,78.4261666 C131.79147,82.2924198 133.038837,86.3621783 133.693694,90.5132 C133.537776,89.4550767 133.366262,88.410532 133.210355,87.3524087 C133.537792,89.4550767 133.787257,91.6392163 133.646953,93.7690763 C133.225962,100.239919 140.179963,105.639061 147.290154,105.639061 C154.992695,105.66619 160.449976,100.239919 160.870688,93.7826202 L160.871789,93.7813908 Z" id="Shape"></path>
                        <path d="M97,47.1403199 L97,11.8596801 C97,5.39445425 90.632007,0 83,0 C75.367993,0 69,5.39445425 69,11.8596801 L69,47.1403199 C69,53.6055458 75.367993,59 83,59 C90.632007,59 97,53.6055458 97,47.1403199 Z" id="Shape"></path>
                        <path d="M97,298.043991 L97,262.956009 C97,256.43827 90.632007,251 83,251 C75.367993,251 69,256.43827 69,262.956009 L69,298.043991 C69,304.56173 75.367993,310 83,310 C90.632007,310 97,304.56173 97,298.043991 Z" id="Shape"></path>
                    </g>
                </g>
            </g>
        </g>
    </g>
</svg>