<?xml version="1.0" encoding="UTF-8"?>
<svg width="482px" height="281px" viewBox="0 0 482 281" version="1.1" xmlns="http://www.w3.org/2000/svg" xmlns:xlink="http://www.w3.org/1999/xlink">
    <!-- Generator: Sketch 46.2 (44496) - http://www.bohemiancoding.com/sketch -->
    <title>Palm Trees</title>
    <desc>Created with Sketch.</desc>
    <defs></defs>
    <g id="Site" stroke="none" stroke-width="1" fill="none" fill-rule="evenodd" opacity="0.119999997">
        <g id="WHERE" transform="translate(-41.000000, -585.000000)" fill-rule="nonzero" fill="#3A3A3A">
            <g id="PALMS" transform="translate(41.000000, 489.000000)">
                <path d="M44.7994763,347.44934 L44.7994763,349.624445 L42.6250422,349.624445 L53.5349679,369.257141 C53.5349679,373.626235 55.7094019,375.801534 55.7094019,380.170435 L53.5349679,377.99533 L62.2516785,393.258641 C62.2516785,397.627735 64.4261126,401.978042 66.6194244,406.346943 L64.4449904,406.346943 L75.354916,425.979639 L75.354916,430.348733 L73.180482,430.348733 L75.354916,434.717827 C70.9871702,434.717827 62.2706532,436.892933 55.7282797,452.175515 C42.6440169,482.702621 18.6687062,463.088809 -7.49788334,487.071521 C16.4774274,491.440616 81.9006778,495.790923 108.068235,487.071521 C114.610609,484.896416 121.152498,484.896416 129.869209,484.896416 C114.610609,491.440809 94.9839726,500.159727 70.9897841,506.70412 C195.273582,528.511824 256.326376,480.527515 334.814527,511.073214 C339.182273,495.809904 308.646001,456.543059 254.133645,432.560831 L256.308079,426.016438 L251.940333,426.016438 C254.114767,423.841332 254.114767,421.647343 254.114767,421.647343 L269.373367,393.295246 L265.005621,393.295246 C269.373367,386.750852 271.547994,380.206943 273.722332,373.66255 L284.632257,354.029854 L280.264511,354.029854 C282.438945,349.66076 284.632257,345.310453 286.806885,340.941552 L299.891148,312.589454 L295.523402,312.589454 L297.697836,308.22036 L306.414547,288.587664 L302.046801,290.76277 C302.046801,288.587664 304.221235,286.393675 304.221235,284.218376 L312.937945,260.235664 L310.763511,260.235664 C310.763511,258.060558 310.763511,255.866569 312.937945,255.866569 L319.480319,236.233874 L317.305885,236.233874 C317.305885,231.864779 319.480319,225.32058 319.480319,220.970563 L323.848065,207.88226 L321.673631,207.88226 C323.848065,205.707155 323.848065,203.513166 323.848065,201.337867 L328.21581,183.88018 L326.041376,183.88018 C328.21581,177.335786 330.409122,168.616869 330.409122,162.072476 L334.776868,162.072476 L332.602434,164.247581 C330.428,170.791974 334.776868,177.335883 341.319145,177.335883 C345.686891,179.510989 352.22907,177.335883 354.403408,170.79149 C369.662008,203.512488 371.855707,249.303873 374.030044,301.655146 L395.831017,258.039738 C395.831017,258.039738 398.005451,247.126444 389.288644,238.407042 C389.288644,238.407042 398.005355,240.582148 402.372907,242.776136 C404.547341,234.056735 387.114307,214.424039 387.114307,214.424039 C387.114307,214.424039 391.482053,218.793133 393.65668,223.143441 C395.831114,216.599047 398.024426,207.88013 391.482246,203.510745 C389.307812,201.33564 380.572321,194.791343 380.572321,194.791343 C380.572321,194.791343 391.482246,199.160438 389.289031,196.966449 C387.114597,188.247047 380.572321,181.703138 380.572321,181.703138 L365.313721,175.158744 L376.223646,175.158744 C371.8559,162.070442 363.139383,162.070442 352.248335,153.35104 C354.422769,153.35104 356.616081,153.35104 360.965046,155.526145 C356.5973,148.981752 345.706446,142.437843 341.33841,138.068458 C384.940357,120.610771 417.653192,183.877759 428.563602,216.580842 C439.473528,199.123154 430.738036,164.229569 417.653676,159.876647 L432.912276,159.876647 C430.737842,157.701541 408.936966,144.613336 408.936966,144.613336 C408.936966,144.613336 415.479339,144.613336 422.021228,146.788441 C419.846794,140.244048 417.653483,140.244048 411.111303,135.875147 C406.743557,138.050252 398.02704,133.700042 398.02704,133.700042 C398.02704,133.700042 415.479339,131.524936 411.111303,129.330947 C408.936869,129.330947 402.394592,124.961853 402.394592,124.961853 L384.942293,124.961853 L395.852219,122.786748 C395.852219,122.786748 389.309845,118.417654 384.942293,118.417654 C380.574741,118.417654 363.14132,120.592759 363.14132,120.592759 C363.14132,120.592759 382.767956,116.223665 369.683693,116.223665 C365.315947,114.048559 358.773767,116.223665 352.231394,118.39877 C356.59914,114.029676 360.948104,109.679368 360.948104,109.679368 C360.948104,109.679368 358.77367,109.679368 352.231394,111.854473 C356.59914,94.3967862 404.566509,79.1334753 432.912276,92.2217777 C426.369903,79.1334753 422.002351,76.9584668 411.111303,74.7640905 C402.394592,72.5889851 398.02704,76.9391958 398.02704,76.9391958 C398.02704,76.9391958 398.02704,72.5701015 402.394786,66.0259019 C400.220352,66.0259019 380.593812,76.9391958 380.593812,76.9391958 C380.593812,76.9391958 382.768246,72.5701015 389.310523,66.0259019 C384.942777,66.0259019 378.400597,68.2010072 374.051923,72.5702952 C371.877489,74.7454005 365.335212,81.289697 365.335212,81.289697 C365.335212,81.289697 369.702958,68.2013945 367.509646,68.2013945 C365.335212,70.3764999 358.792936,72.5704888 358.792936,72.5704888 L352.250562,87.8337997 L354.424996,76.9205058 C354.424996,76.9205058 347.882623,81.2896001 345.708285,83.4648991 C343.533851,87.8339934 336.991575,100.922586 336.991575,100.922586 C336.991575,100.922586 341.359321,90.0092924 336.991575,98.747481 C334.817141,100.922586 334.817141,100.922586 332.623829,100.922586 C341.34054,92.2031846 339.166202,55.1132858 339.166202,44.2183913 C332.623829,59.4817022 328.256277,100.922586 326.08194,107.464075 C326.08194,107.464075 328.256374,96.5507806 328.256374,92.2007636 C328.256374,90.0256583 326.08194,85.6563703 326.08194,85.6563703 L321.714194,92.2007636 L321.714194,79.1124612 C321.714194,79.1124612 319.53976,70.3930594 317.346448,68.1991672 C317.346448,74.7435605 315.172014,81.2874697 315.172014,81.2874697 C315.172014,81.2874697 312.99758,74.7430763 312.99758,72.5680679 C312.99758,68.1989736 308.629834,63.8486661 304.280869,61.6547739 C308.648615,68.1991672 306.455303,72.5680679 306.455303,72.5680679 C306.455303,72.5680679 299.91293,61.6547739 297.738593,59.4797654 C295.564159,59.4797654 295.564159,66.0241587 295.564159,66.0241587 C295.564159,66.0241587 293.389725,61.6550644 286.847448,59.4797654 C273.763185,55.1106711 267.220812,57.3046601 256.329764,68.1991672 C256.329764,68.1991672 278.130737,63.8300729 299.931711,85.6568545 C304.299457,90.0259488 308.648421,94.3762563 310.841636,98.7451569 L302.124926,90.0257551 L304.29936,98.7451569 L295.582649,85.6568545 C295.582649,85.6568545 289.040276,83.4817491 286.865939,81.2877602 C284.691505,79.1126548 289.040373,90.007162 289.040373,90.007162 C289.040373,90.007162 282.497999,83.4627687 280.323662,81.2877602 C280.323662,79.1126548 273.781288,74.7433669 269.413736,74.7433669 C267.239302,72.5682615 265.04599,72.5682615 260.697026,70.3742726 C256.32928,70.3742726 267.239399,79.0936744 267.239399,79.0936744 C267.239399,79.0936744 245.438426,70.3742726 243.264088,68.1803804 C241.089654,72.5494747 245.438522,74.7247737 245.438522,74.7247737 C245.438522,74.7247737 232.35426,72.5496684 225.811886,72.5496684 C221.44414,72.5496684 227.98632,76.9187627 227.98632,79.0940617 C223.618574,76.9189564 217.076394,79.0940617 212.72772,87.8134635 C208.359974,100.901766 210.553286,100.901766 210.553286,109.621168 C210.553286,109.621168 232.35426,74.7251611 271.60608,92.1634805 C282.516006,98.7078738 291.232716,103.076774 297.774606,109.621168 C291.232232,107.446062 282.516006,105.252073 269.431259,107.446062 C251.97896,109.621168 278.147969,113.990456 278.147969,113.990456 L249.804622,113.990456 C245.436877,113.990456 238.894697,120.534849 238.894697,120.534849 L254.153297,122.709954 L230.177986,122.709954 C230.177986,122.709954 223.635613,127.079049 219.26806,127.079049 C217.093626,129.254154 238.894697,131.448143 238.894697,131.448143 C238.894697,131.448143 223.636097,133.623248 219.26806,133.623248 C212.725687,135.798354 206.183798,140.167642 204.00946,146.711551 C217.093723,142.342456 223.636097,142.342456 223.636097,142.342456 C223.636097,142.342456 208.377497,151.061858 206.183798,153.25575 C204.009364,157.624845 214.900508,157.624845 214.900508,157.624845 C203.990583,161.993939 199.641908,199.065245 203.990583,212.155 C203.990583,212.155 221.442882,181.627894 249.785745,153.257397 C273.761055,129.274684 295.580907,129.274684 308.665169,133.624701 C299.948459,133.624701 291.21287,135.799806 286.864196,137.993795 C275.95427,144.538188 293.406569,140.168901 293.406569,140.168901 C293.406569,140.168901 280.322307,148.888302 275.95427,151.082194 C273.779836,153.2573 267.23756,157.626588 267.23756,157.626588 L280.321823,157.626588 C271.605112,164.170981 260.695186,166.34599 249.804138,179.434292 C247.629704,181.609397 267.256438,177.259187 267.256438,177.259187 C258.539727,188.172481 247.629801,190.347489 243.281127,205.611284 C251.997837,203.436179 254.191052,201.24219 256.36539,201.24219 C256.36539,201.24219 243.281127,220.874886 243.281127,223.049894 C241.106693,227.418988 249.8235,223.049894 249.8235,223.049894 C245.455754,231.769296 247.649066,242.68259 254.191246,260.120909 C254.191246,260.120909 269.449846,229.593803 282.534593,190.328896 C286.902339,175.065585 297.793193,164.152291 306.509904,157.607898 C306.509904,157.607898 308.684338,159.783003 308.684338,161.976992 C308.684338,164.152097 306.509904,166.346086 306.509904,168.521385 C304.33547,172.89048 306.509904,179.434679 313.052277,181.609688 L313.052277,194.69799 C313.052277,199.067085 310.877843,201.242384 310.877843,205.611284 L308.703409,203.436179 L308.703409,216.524481 C306.528975,223.068875 304.335663,227.437775 304.335663,233.982169 L302.161229,231.807063 L297.793484,249.26475 C297.793484,251.439856 297.793484,253.633845 295.61905,257.984152 L293.444616,253.615058 L291.270181,273.247754 C291.270181,275.422859 289.095747,279.792147 286.902436,284.161048 L284.728002,281.985942 L280.360256,301.618638 L278.185822,308.163031 L276.011388,303.793937 L269.469014,327.77665 C267.29458,334.321043 265.101269,340.864952 262.926641,347.409345 L258.558895,345.23424 L252.016522,369.216953 C249.842088,375.761346 247.648776,380.130247 245.474148,384.480264 L243.299714,382.305158 L234.583004,406.287871 C232.40857,408.462976 230.215258,412.832264 228.04063,415.007273 L225.866196,410.638179 L217.149485,430.270874 C206.23956,430.270874 197.522849,432.44598 188.806139,438.990276 C186.631705,436.815171 182.263765,436.815171 177.896213,434.621182 L180.070647,432.446076 L177.896213,432.446076 L177.896213,430.270971 L182.263959,417.182669 L182.263959,408.463267 L186.631705,397.549973 L184.45727,399.725078 C186.631705,397.549973 186.631705,395.355984 186.631705,393.180685 L190.99945,380.092383 L188.825016,380.092383 L188.825016,377.917277 L190.99945,369.197875 L190.99945,367.02277 L193.173884,356.109476 L190.99945,356.109476 L190.99945,353.934371 L193.173884,345.214969 L193.173884,338.670576 L193.173884,332.126182 L193.173884,329.951077 L193.173884,321.231675 L193.173884,312.512274 L195.348318,312.512274 C195.348318,316.881368 195.348318,319.056667 199.716064,319.056667 C201.890498,319.056667 204.08381,316.881562 204.08381,314.687573 C212.800521,327.775875 217.168073,347.408571 221.536109,371.391768 L228.078483,349.584063 C228.078483,349.584063 228.078483,345.214969 223.710737,340.864662 C223.710737,340.864662 228.078483,343.039767 230.25311,343.039767 C230.25311,338.670673 221.5364,332.126473 221.5364,332.126473 C221.5364,332.126473 223.710834,332.126473 225.904145,334.301578 C225.904145,332.126473 225.904145,327.757185 223.729711,325.582177 C221.555277,325.582177 217.187338,323.407071 217.187338,323.407071 C217.187338,323.407071 221.555084,325.582177 221.555084,323.407071 C219.38065,319.037977 217.187338,319.037977 217.187338,319.037977 L210.644964,314.668883 L215.01271,314.668883 C210.644964,310.299788 208.470337,310.299788 201.928447,308.124489 C201.928447,305.949384 204.102881,305.949384 206.296193,308.124489 C204.121759,303.755395 199.75382,301.580096 197.579483,301.580096 C215.031782,290.666802 232.464719,316.843407 239.007092,329.932194 C243.374838,321.212792 236.832658,305.949481 230.290382,305.949481 C230.290382,305.949481 234.658128,305.949481 236.832755,303.774375 L225.92283,299.405281 L232.465203,299.405281 C230.290769,297.230176 230.290769,297.230176 225.92283,295.036187 C225.92283,297.211292 221.555084,295.036187 221.555084,295.036187 C221.555084,295.036187 228.097457,292.861082 225.92283,292.861082 L221.555084,290.685976 L215.01271,292.861082 L219.380456,290.685976 L215.01271,290.685976 C212.838276,290.685976 204.102785,292.861082 204.102785,292.861082 C204.102785,292.861082 212.819495,288.491987 206.277219,288.491987 C204.102785,290.667093 201.909473,290.667093 199.734845,292.861082 C201.909279,290.685976 204.102591,288.491987 204.102591,288.491987 L199.734845,288.491987 C199.734845,281.947594 219.361481,271.0343 234.620082,275.403685 C230.252336,271.034591 228.077708,268.859292 221.535819,268.859292 C219.361385,268.859292 217.168073,271.034397 217.168073,271.034397 L217.168073,266.665303 L210.625699,271.034397 C210.625699,271.034397 210.625699,268.859292 212.800133,266.665303 C210.625699,266.665303 208.432388,268.840408 206.25776,271.034397 C206.25776,271.034397 204.083326,275.403491 204.083326,275.403491 L204.083326,268.859098 C201.908892,271.034203 199.71558,271.034203 199.71558,271.034203 L197.541146,277.578596 L197.541146,273.209502 C197.541146,273.209502 195.366712,275.384607 195.366712,277.578596 C193.192278,279.753702 193.192278,286.297998 193.192278,286.297998 C193.192278,286.297998 193.192278,279.753605 191.017844,284.122893 L191.017844,286.297998 C193.192278,281.928904 188.84341,264.490294 188.84341,260.121393 C186.668976,266.665787 188.84341,286.297998 188.84341,288.473491 C188.84341,288.473491 188.84341,284.104397 186.668976,281.929098 L186.668976,279.753992 L184.494542,281.929098 L184.494542,277.560003 C184.494542,277.560003 182.320108,273.190909 182.320108,273.190909 L182.320108,279.735302 C182.320108,279.735302 180.145674,275.366208 180.145674,275.366208 C180.145674,273.191103 177.97124,270.997114 175.777928,270.997114 C177.952362,273.172219 177.952362,275.366208 177.952362,275.366208 C177.952362,275.366208 173.584616,270.997114 171.409989,270.997114 L171.409989,273.172219 C171.409989,273.172219 171.409989,270.997114 167.042243,270.997114 C162.674497,268.822008 158.325532,270.997114 153.95798,275.366208 C153.95798,275.366208 164.867906,273.191103 175.758954,281.910601 C177.933388,281.910601 180.126699,284.085707 180.126699,286.279696 C180.126699,286.279696 177.952265,284.10459 175.758954,284.10459 L177.933388,286.279696 L173.565642,281.910601 C173.565642,281.910601 171.391208,279.735496 169.197896,279.735496 C167.023462,279.735496 171.37233,284.10459 171.37233,284.10459 C171.37233,284.10459 167.004584,281.929485 167.004584,279.735496 C164.83015,279.735496 162.636838,279.735496 160.462211,277.560391 L156.094465,277.560391 L160.462211,281.929485 L149.552285,277.560391 C147.377851,279.735496 151.726719,279.735496 151.726719,279.735496 L140.816793,279.735496 C140.816793,279.735496 142.991227,281.910601 142.991227,284.10459 C140.816793,281.929485 138.623482,284.10459 136.448854,288.473685 C136.448854,295.018078 138.623288,295.018078 138.623288,297.193086 C138.623288,297.193086 145.165661,281.929776 162.598599,286.279792 C169.140972,288.454898 173.508524,290.648887 175.682862,292.824186 C173.508427,290.64908 169.140488,290.64908 162.598599,292.824186 C156.056709,294.999291 166.966344,294.999291 166.966344,294.999291 C166.966344,294.999291 158.249634,297.174396 156.056419,297.174396 C153.881985,297.174396 149.514045,299.349502 149.514045,299.349502 L158.230756,301.524607 L147.32083,301.524607 L142.953085,305.893701 L151.669795,305.893701 C151.669795,305.893701 145.127422,308.068807 142.953085,308.068807 C140.778651,308.068807 138.585339,312.437901 138.585339,314.6132 C142.953085,312.438095 145.127712,310.244106 145.127712,310.244106 L138.585339,316.788499 C138.585339,318.963604 142.953085,318.963604 142.953085,318.963604 C138.585339,321.13871 138.585339,338.5963 142.953085,342.946317 C142.953085,342.946317 147.32083,327.683006 158.211685,314.59422 C166.928395,301.505917 175.663984,301.505917 182.186995,301.505917 C177.819249,301.505917 175.644622,303.681022 173.470285,305.875011 C169.102539,308.050117 175.644719,305.875011 175.644719,305.875011 C175.644719,305.875011 171.276973,310.244106 169.102345,312.419405 L166.927911,314.59451 L171.295657,314.59451 C166.927911,316.769615 164.753284,318.963604 160.385731,325.507804 C158.211297,325.507804 166.928105,323.332699 166.928105,323.332699 C162.560359,327.701793 160.385731,329.877092 158.211394,336.421001 C162.57914,336.421001 162.57914,334.245896 164.753768,334.245896 C164.753768,334.245896 160.386022,342.965298 160.386022,345.15919 C160.386022,347.334295 162.560456,345.15919 162.560456,345.15919 C160.386022,347.334295 162.560456,351.703583 166.928202,360.422501 C166.928202,360.422501 171.295947,345.15919 173.470575,327.701502 C175.645009,321.157109 180.012949,314.6132 182.187286,312.438192 C182.187286,312.438192 184.36172,312.438192 184.36172,314.613297 C184.36172,314.613297 182.187286,314.613297 182.187286,316.788402 C182.187286,318.963508 184.36172,321.157497 186.555032,321.157497 L188.729466,321.157497 L188.729466,327.70189 L188.729466,332.070984 L186.555032,332.070984 L186.555032,338.615377 L186.555032,345.159771 L186.555032,351.704164 C186.555032,353.879269 184.380598,353.879269 184.380598,356.073258 L184.380598,362.617652 C184.380598,364.792757 184.380598,366.986746 182.206164,366.986746 L182.206164,375.706148 L180.03173,380.075242 L180.03173,377.900137 L177.857296,388.813431 C177.857296,390.988536 177.857296,395.357824 175.682862,397.532832 L175.682862,395.357727 L173.508427,408.44603 C173.508427,410.621135 171.333993,412.815124 171.333993,414.990423 L171.333993,412.815318 L169.159559,423.728611 C166.985125,425.903717 166.985125,428.097706 166.985125,428.097706 L164.810691,428.097706 L162.636257,436.817108 C153.919547,436.817108 149.551995,443.361501 140.835284,454.274795 C127.751021,443.361501 114.666758,430.292082 101.582011,432.467091 L95.0396379,419.378788 L92.8652039,421.553894 C92.8652039,419.378788 90.6907699,417.184799 88.4974581,415.0095 L84.1297123,397.551813 L81.9552783,399.726918 C79.7808443,397.551813 77.5875324,393.182525 77.5875324,391.007516 L71.045159,371.374821 L68.870725,375.743915 C66.696291,369.199522 66.696291,364.830621 64.5029791,360.480604 L60.1352333,345.217293 L57.9607993,347.392399 L55.7863653,343.023304 L53.6119313,327.759993 L51.4374973,329.935099 C51.4374973,327.759993 49.2630633,323.390705 49.2630633,321.215697 L47.0886293,310.302403 L44.9141953,310.302403 L44.9141953,305.933309 L42.7397613,292.845006 L40.5653273,295.020112 C38.3908933,290.651017 38.3908933,286.30071 38.3908933,281.931809 L36.2164593,273.212407 L36.2164593,275.387513 C34.0420253,273.212407 34.0420253,268.843119 34.0420253,266.668111 L34.0420253,257.948709 C38.4097711,255.773604 40.5843987,251.404316 38.4097711,249.229307 C38.4097711,247.054202 38.4097711,244.860213 36.2353371,244.860213 C36.2353371,242.685108 38.4097711,242.685108 38.4097711,240.491119 C44.9521445,244.860213 51.4940339,253.579421 55.8620702,264.473831 C64.5787808,290.650436 75.4887065,312.458625 75.4887065,312.458625 C79.8564523,299.370322 82.0310799,292.825929 77.6631405,288.475912 C77.6631405,288.475912 84.205514,290.651017 84.205514,288.475912 C82.0310799,286.300807 73.2955883,271.018225 73.2955883,271.018225 C75.4700223,271.018225 77.6633341,273.19333 84.205514,275.387319 C79.8377681,264.474025 73.2955883,262.299017 66.7532148,255.754623 C66.7532148,255.754623 79.8374777,257.929729 77.6631405,255.754623 C71.1207671,247.035221 62.4045405,247.035221 55.862167,240.491312 L64.5788777,240.491312 C64.5788777,240.491312 62.4044436,238.316207 60.2111318,236.122218 C55.843386,236.122218 47.126869,229.577825 47.126869,229.577825 C47.126869,229.577825 60.2111318,231.75293 51.4946148,227.402719 C49.3201808,225.227614 42.7779042,225.227614 36.2360147,223.033625 C44.9527254,220.85852 62.4045405,220.85852 79.8379617,238.296936 C97.2902609,257.929632 110.355646,279.737336 110.355646,279.737336 C112.53008,271.017934 110.355646,244.841329 101.638935,240.471945 C101.638935,240.471945 110.355646,240.471945 108.181309,238.296839 C108.181309,236.121734 97.271383,231.752446 97.271383,231.752446 C97.271383,231.752446 101.639129,229.577341 110.355646,233.927551 C108.181212,229.558457 103.813272,225.208149 99.4457202,223.014257 C95.0779744,225.189363 86.3614574,223.014257 86.3614574,223.014257 C86.3614574,223.014257 101.620057,220.839152 99.4457202,220.839152 C97.2712862,218.664047 92.9033468,216.470058 92.9033468,216.470058 L75.4510477,216.470058 L86.3609733,214.294952 C86.3609733,214.294952 81.9932275,209.925858 77.6442627,209.925858 L58.0176264,209.925858 C58.0176264,209.925858 75.4699255,207.750753 64.5599998,205.556764 C55.8432892,205.556764 49.3013998,205.556764 44.9333635,207.731869 C49.3011094,203.362775 55.8432892,199.012467 64.5599998,194.643567 C90.7285255,183.730273 105.98761,207.731869 105.98761,207.731869 C105.98761,201.187476 108.162044,201.187476 103.813176,192.468558 C101.638742,185.924165 97.2708022,183.749156 92.90325,185.924165 C92.90325,183.749059 97.2709958,181.555071 95.077684,181.555071 C90.7099382,181.555071 81.9934211,183.730176 81.9934211,183.730176 C81.9934211,183.730176 84.1678551,181.555071 84.1678551,179.361082 C81.9934211,179.361082 66.715556,185.905475 66.715556,185.905475 C66.715556,185.905475 73.2579295,179.361082 71.0833018,179.361082 C66.715556,181.536187 66.715556,181.536187 64.5409284,181.536187 C62.3664944,183.711292 57.9985549,185.905281 55.8242178,188.08058 C55.8242178,190.255685 51.4564719,192.449674 51.4564719,192.449674 C51.4564719,192.449674 53.6309059,185.905281 51.4564719,185.905281 C49.2820379,188.080386 44.9140985,190.274375 44.9140985,190.274375 L40.5463527,198.993777 L40.5463527,194.624683 C38.3719186,196.799788 36.1786068,198.993777 36.1786068,201.169076 C36.1786068,196.799982 40.5463527,192.449674 42.7209803,190.255782 C57.9795803,174.992471 73.2386644,177.16748 73.2386644,177.16748 C66.696291,170.623087 60.1544016,168.448078 51.4376909,172.798386 C47.0699451,172.798386 47.0699451,177.16748 47.0699451,177.16748 C47.0699451,177.16748 44.8955111,172.798386 44.8955111,172.798386 C42.7210771,174.973491 38.3531376,181.517787 38.3531376,181.517787 C38.3531376,181.517787 36.1787036,177.148693 40.5275716,172.798386 C36.1598258,174.973491 33.9851982,179.342779 33.9851982,181.517787 C33.9851982,183.692796 31.8107642,188.062181 31.8107642,188.062181 C31.8107642,188.062181 31.8107642,183.693086 29.6363302,179.342779 C29.6363302,181.517884 27.4618962,185.887172 27.4618962,185.887172 L27.4618962,194.606574 L25.2874622,190.23748 C25.2874622,190.23748 23.1130282,192.412585 23.1130282,194.606574 C23.1130282,196.781679 25.2874622,205.519868 25.2874622,207.694876 C23.1130282,201.150483 20.9197163,170.623861 16.5707515,161.885576 C16.5707515,168.429969 14.3963175,196.781583 18.7451855,201.150967 L16.5707515,198.975862 C14.3963175,192.431469 16.5707515,201.150967 16.5707515,201.150967 C16.5707515,201.150967 12.2030057,192.431566 10.0283781,190.237673 C10.0283781,188.062568 5.66063225,183.69328 5.66063225,183.69328 L7.83506626,192.412682 L1.29269281,181.499388 C1.29269281,181.499388 -3.07505302,179.324283 -5.24968064,179.324283 C-7.42411465,177.149177 -3.07524664,188.043684 -3.07524664,188.043684 L-9.61762008,181.499291 C-11.7920541,179.324186 -16.1599935,177.130197 -20.5275457,177.130197 C-13.9851723,181.499291 -13.9851723,183.67459 -13.9851723,183.67459 C-13.9851723,183.67459 -27.0694351,177.130197 -29.2437723,177.130197 C-24.8760265,181.499291 -27.0693383,183.67459 -27.0693383,183.67459 C-27.0693383,183.67459 -29.2437723,181.499485 -35.786049,181.499485 C-42.3284224,183.67459 -46.6959746,185.868579 -51.044649,194.587787 C-31.4180127,185.868385 3.46867576,196.762893 5.64204487,209.851098 L1.27429904,207.675993 C1.27429904,207.675993 3.44873304,209.851098 5.64204487,214.220386 C1.27429904,212.045281 -3.07466578,212.045281 -5.26788079,212.045281 C-13.9845914,212.045281 -0.900134965,214.220386 -0.900134965,214.220386 L-16.158735,214.220386 C-20.5264808,214.220386 -24.8754457,216.395491 -24.8754457,216.395491 L-16.158735,218.570597 L-29.2429979,218.570597 C-29.2429979,218.570597 -33.6107437,220.745702 -35.7853713,220.745702 C-37.9598053,222.920807 -24.8754457,225.114796 -24.8754457,225.114796 C-24.8754457,225.114796 -31.4178191,227.289902 -35.7853713,227.289902 C-40.1529235,227.289902 -42.3277448,229.465007 -42.3277448,233.834295 C-37.9599989,231.65919 -33.6110341,231.65919 -33.6110341,231.65919 C-33.6110341,231.65919 -48.8696342,240.378592 -48.8696342,242.572484 L-40.1529235,242.572484 C-48.8696342,246.941578 -55.4115236,270.924581 -48.8696342,281.837875 C-37.9597085,260.030171 -16.158735,214.219902 14.3565289,227.30772 C9.98878307,229.482825 3.44660324,233.852113 -0.902071151,238.221014 L5.6403023,238.221014 C-0.902071151,244.765407 -7.44396055,244.765407 -11.8119968,253.484325 L-3.09528616,253.484325 L-14.0052118,257.853419 C-14.0052118,257.853419 -18.3729576,262.222514 -20.5475853,268.766713 C-20.5475853,270.941819 -14.0052118,266.591608 -14.0052118,266.591608 L-20.5475853,273.136001 C-24.9153311,275.311107 -24.9153311,281.855403 -22.7220193,286.224304 C-20.5475853,284.049198 -18.3542734,281.855209 -18.3542734,281.855209 C-18.3542734,281.855209 -29.2641991,294.943512 -29.2641991,301.487905 C-24.8964533,299.3128 -20.5474885,297.118811 -20.5474885,297.118811 C-27.0898619,303.663204 -24.9152343,312.382122 -24.9152343,310.207113 L-9.65663424,342.928111 C-7.48220023,305.857096 -5.28888841,273.136098 3.42762861,249.134502 C5.60206262,253.503596 9.97000206,255.678895 14.3375543,255.678895 C18.7053001,253.50379 20.8799277,249.134502 18.7053001,244.765601 L20.8797341,244.765601 C23.0541681,249.134695 23.0541681,253.485003 25.2474799,260.028912 L23.0730459,260.028912 L25.2474799,270.942206 C27.4219139,273.117311 27.4219139,275.3113 27.4219139,275.3113 L25.2474799,275.3113 L29.6152258,286.224594 C29.6152258,288.399699 29.6152258,292.768987 31.7896598,297.137888 L29.6152258,294.962783 L33.9829716,310.226094 C33.9829716,310.226094 36.1574056,312.401199 36.1574056,312.401199 L33.9829716,312.401199 L40.525345,329.858886 L40.525345,334.227981 L38.350911,334.227981 L44.8932845,347.316283 L44.7994763,347.44934 Z" id="Palm-Trees" transform="translate(190.988206, 278.409624) rotate(20.000000) translate(-190.988206, -278.409624) "></path>
            </g>
        </g>
    </g>
</svg>