<?xml version="1.0" encoding="UTF-8"?>
<svg width="173px" height="395px" viewBox="0 0 173 395" version="1.1" xmlns="http://www.w3.org/2000/svg" xmlns:xlink="http://www.w3.org/1999/xlink">
    <!-- Generator: Sketch 46.2 (44496) - http://www.bohemiancoding.com/sketch -->
    <title>noun_198645_cc</title>
    <desc>Created with Sketch.</desc>
    <defs></defs>
    <g id="Site" stroke="none" stroke-width="1" fill="none" fill-rule="evenodd" opacity="0.12">
        <g id="CONTACT" transform="translate(-1283.000000, -471.000000)" fill-rule="nonzero" fill="#000000">
            <g id="PALMS" transform="translate(41.000000, 437.000000)">
                <g id="np_palm-tree_672695_000000">
                    <g id="noun_198645_cc" transform="translate(1334.000000, 247.000000) rotate(-11.000000) translate(-1334.000000, -247.000000) translate(1263.000000, 39.000000)">
                        <path d="M119,92.4444444 L119,6.00888889 C119,2.77333333 116.24,0 113.02,0 C109.8,0 107.5,2.77333333 107.5,6.00888889 L107.5,92.4444444 L96,92.4444444 L96,155.306667 L119,225.102222 L119,353.137778 L96,393.813333 L96,416 L142,416 L142,92.4444444 L119,92.4444444 Z" id="Shape"></path>
                        <path d="M116,225.574893 L92.8,155.783167 L92.8,92 L0,92 L0,155.783167 L23.2,225.112696 L23.2,352.216833 L0,392.890157 L0,416 L92.8,416 L92.8,391.965763 L116,351.292439 L116,225.574893 Z M58,115.109843 C59.392,115.109843 60.784,116.496434 60.784,117.883024 C60.784,119.269615 59.392,120.656205 58,120.656205 C56.608,120.656205 55.216,119.269615 55.216,117.883024 C54.752,116.496434 56.144,115.109843 58,115.109843 Z M58,126.664765 C59.392,126.664765 60.784,128.051355 60.784,129.437946 C60.784,130.824536 59.392,132.211127 58,132.211127 C56.608,132.211127 55.216,130.824536 55.216,129.437946 C54.752,128.051355 56.144,126.664765 58,126.664765 Z M58,138.219686 C59.392,138.219686 60.784,139.606277 60.784,140.992867 C60.784,142.379458 59.392,143.766049 58,143.766049 C56.608,143.766049 55.216,142.379458 55.216,140.992867 C54.752,139.606277 56.144,138.219686 58,138.219686 Z M46.4,115.109843 C47.792,115.109843 49.184,116.496434 49.184,117.883024 C49.184,119.269615 47.792,120.656205 46.4,120.656205 C45.008,120.656205 43.616,119.269615 43.616,117.883024 C43.152,116.496434 44.544,115.109843 46.4,115.109843 Z M46.4,126.664765 C47.792,126.664765 49.184,128.051355 49.184,129.437946 C49.184,130.824536 47.792,132.211127 46.4,132.211127 C45.008,132.211127 43.616,130.824536 43.616,129.437946 C43.152,128.051355 44.544,126.664765 46.4,126.664765 Z M46.4,138.219686 C47.792,138.219686 49.184,139.606277 49.184,140.992867 C49.184,142.379458 47.792,143.766049 46.4,143.766049 C45.008,143.766049 43.616,142.379458 43.616,140.992867 C43.152,139.606277 44.544,138.219686 46.4,138.219686 Z M34.8,115.109843 C36.192,115.109843 37.584,116.496434 37.584,117.883024 C37.584,119.269615 36.192,120.656205 34.8,120.656205 C33.408,120.656205 32.016,119.269615 32.016,117.883024 C31.552,116.496434 32.944,115.109843 34.8,115.109843 Z M34.8,126.664765 C36.192,126.664765 37.584,128.051355 37.584,129.437946 C37.584,130.824536 36.192,132.211127 34.8,132.211127 C33.408,132.211127 32.016,130.824536 32.016,129.437946 C31.552,128.051355 32.944,126.664765 34.8,126.664765 Z M34.8,138.219686 C36.192,138.219686 37.584,139.606277 37.584,140.992867 C37.584,142.379458 36.192,143.766049 34.8,143.766049 C33.408,143.766049 32.016,142.379458 32.016,140.992867 C31.552,139.606277 32.944,138.219686 34.8,138.219686 Z M17.168,172.884451 L86.768,172.884451 L98.368,207.549215 L28.768,207.549215 L17.168,172.884451 Z M37.584,314.31669 L37.584,302.761769 L55.216,302.761769 L55.216,314.31669 L37.584,314.31669 Z M54.752,331.880171 L54.752,343.435093 L37.12,343.435093 L37.12,331.880171 L54.752,331.880171 Z M37.584,291.206847 L37.584,279.651926 L55.216,279.651926 L55.216,291.206847 L37.584,291.206847 Z M37.584,268.097004 L37.584,256.542083 L55.216,256.542083 L55.216,268.097004 L37.584,268.097004 Z M37.584,244.987161 L37.584,233.43224 L55.216,233.43224 L55.216,244.987161 L37.584,244.987161 Z M51.968,409.991441 L40.368,409.991441 C37.12,409.991441 34.336,407.21826 34.336,403.982882 C34.336,400.747504 37.12,397.974322 40.368,397.974322 L51.968,397.974322 C55.216,397.974322 58,400.747504 58,403.982882 C58,407.21826 55.216,409.991441 51.968,409.991441 Z M77.952,343.435093 L60.32,343.435093 L60.32,331.880171 L77.952,331.880171 L77.952,343.435093 Z M77.952,314.31669 L60.32,314.31669 L60.32,302.761769 L77.952,302.761769 L77.952,314.31669 Z M77.952,291.206847 L60.32,291.206847 L60.32,279.651926 L77.952,279.651926 L77.952,291.206847 Z M77.952,268.097004 L60.32,268.097004 L60.32,256.542083 L77.952,256.542083 L77.952,268.097004 Z M77.952,244.987161 L60.32,244.987161 L60.32,233.43224 L77.952,233.43224 L77.952,244.987161 Z M101.152,343.435093 L83.52,343.435093 L83.52,331.880171 L101.152,331.880171 L101.152,343.435093 Z M101.152,314.31669 L83.52,314.31669 L83.52,302.761769 L101.152,302.761769 L101.152,314.31669 Z M101.152,291.206847 L83.52,291.206847 L83.52,279.651926 L101.152,279.651926 L101.152,291.206847 Z M101.152,268.097004 L83.52,268.097004 L83.52,256.542083 L101.152,256.542083 L101.152,268.097004 Z M101.152,244.987161 L83.52,244.987161 L83.52,233.43224 L101.152,233.43224 L101.152,244.987161 Z" id="Shape"></path>
                    </g>
                </g>
            </g>
        </g>
    </g>
</svg>