<?xml version="1.0" standalone="no"?>
<!DOCTYPE svg PUBLIC "-//W3C//DTD SVG 20010904//EN"
 "http://www.w3.org/TR/2001/REC-SVG-20010904/DTD/svg10.dtd">
<svg version="1.0" xmlns="http://www.w3.org/2000/svg"
 width="260.000000pt" height="260.000000pt" viewBox="0 0 260.000000 260.000000"
 preserveAspectRatio="xMidYMid meet">
<metadata>
Created by potrace 1.11, written by Peter Selinger 2001-2013
</metadata>
<g transform="translate(0.000000,260.000000) scale(0.100000,-0.100000)"
fill="#000000" stroke="none">
<path d="M314 1821 c-66 -30 -74 -58 -74 -270 0 -181 0 -181 23 -182 25 -1 81
2 84 5 1 1 3 19 5 40 3 43 11 51 56 51 34 0 38 -6 41 -59 0 -16 2 -30 4 -32 4
-4 41 -6 75 -5 l34 1 -4 193 c-3 210 -8 230 -66 257 -44 21 -132 21 -178 1z
m128 -125 c10 -15 10 -88 -1 -104 -5 -8 -23 -12 -47 -10 -35 3 -39 6 -42 32
-6 47 7 94 26 99 22 6 55 -3 64 -17z"/>
<path d="M706 1830 c-15 -5 -37 -17 -48 -27 -42 -38 -49 -69 -50 -209 0 -113
3 -138 19 -166 64 -109 271 -91 302 27 11 44 3 62 -31 69 -55 11 -78 7 -78
-12 0 -42 -70 -60 -90 -23 -15 28 -13 193 3 213 25 33 72 26 86 -13 10 -30 12
-31 53 -24 24 4 49 12 55 17 26 21 -11 104 -59 132 -33 20 -120 28 -162 16z"/>
<path d="M977 1824 c-12 -13 -8 -442 4 -450 15 -9 265 -11 289 -2 16 6 19 16
17 55 l-2 48 -95 5 c-93 5 -95 5 -95 30 0 24 4 25 65 30 l65 5 0 55 0 54 -65
1 -65 1 0 29 0 30 85 0 c47 0 91 4 98 8 7 5 11 26 10 55 l-3 47 -150 3 c-83 2
-154 0 -158 -4z"/>
<path d="M727 1298 c-97 -20 -118 -62 -118 -235 -1 -71 3 -139 9 -153 33 -82
145 -114 239 -69 67 33 77 60 77 219 0 146 -10 184 -57 215 -33 21 -105 33
-150 23z m77 -121 c17 -12 19 -38 17 -174 -1 -64 -47 -95 -85 -57 -12 12 -16
37 -16 110 0 53 5 104 10 115 12 22 48 25 74 6z"/>
<path d="M310 1282 c-59 -32 -73 -75 -73 -221 0 -100 4 -136 18 -164 33 -70
144 -97 232 -58 58 27 75 65 77 166 l1 80 -82 3 c-46 2 -83 -1 -84 -5 -8 -72
-7 -74 14 -82 12 -5 25 -7 30 -4 14 8 7 -36 -9 -51 -21 -21 -47 -20 -67 2 -24
26 -24 203 -1 226 30 31 84 14 84 -26 0 -22 9 -24 69 -15 42 7 51 21 40 60
-13 47 -38 78 -74 93 -48 20 -133 18 -175 -4z"/>
<path d="M1730 1290 l-35 -5 0 -218 c0 -120 2 -222 5 -226 3 -5 73 -8 155 -7
l150 1 3 53 c2 37 -1 52 -10 53 -7 1 -38 3 -68 4 -132 5 -122 2 -118 33 3 26
6 27 58 28 30 1 61 2 68 3 8 1 12 19 12 56 l0 54 -67 3 c-65 3 -68 4 -68 28 0
25 2 25 95 30 l95 5 3 53 c3 48 1 52 -20 53 -133 3 -229 3 -258 -1z"/>
<path d="M2049 1288 c-17 -7 -20 -15 -17 -55 l3 -48 63 -3 c39 -2 62 -7 63
-15 0 -7 0 -77 0 -157 0 -80 2 -152 5 -161 7 -24 101 -26 108 -2 2 10 5 83 5
163 0 80 0 151 0 158 1 8 20 12 60 12 l59 0 0 55 c0 34 -5 55 -12 56 -80 4
-322 2 -337 -3z"/>
<path d="M988 1278 c-3 -7 -4 -90 -3 -184 1 -148 4 -175 21 -203 39 -68 146
-91 230 -51 67 33 75 59 76 268 l1 177 -54 0 -54 0 -5 -168 c-4 -134 -8 -170
-20 -177 -41 -26 -80 2 -81 58 0 20 -1 93 -2 162 l-2 125 -51 3 c-35 2 -53 -1
-56 -10z"/>
<path d="M1368 1278 c-4 -11 -3 -421 1 -439 0 -4 65 -6 143 -5 l142 1 6 25 c3
14 3 39 0 55 l-6 30 -81 0 c-45 0 -85 3 -88 7 -4 4 -7 81 -8 172 l0 166 -53 0
c-33 0 -53 -5 -56 -12z"/>
</g>
</svg>
